<svg id="Layer_1" data-name="Layer 1" xmlns="http://www.w3.org/2000/svg" viewBox="0 0 143 44">
  <g>
    <g>
      <g>
        <path d="M115.466,11.77183a3.3308,3.3308,0,0,0-2.65365-1.132l-12.34378.00047q-.41378,2.34671-.82746,4.69342h1.81238q-1.1829,6.70855-2.36587,13.41709-.90615,0-1.81238,0-.41387,2.34726-.82776,4.69451H108.875a5.19036,5.19036,0,0,0,4.92444-4.60028q1.19215-6.76109,2.38431-13.52217A4.28217,4.28217,0,0,0,115.466,11.77183Zm-11.70327,1.5249h-2.24888q.05479-.31027.10947-.62056h10.3764c1.70844,0,2.50361,1.11675,2.16459,3.03942q-1.11563,6.327-2.23124,12.65394c-.339,1.92268-1.52789,3.03948-3.23648,3.0395H98.32019q.05475-.31029.10938-.62057h2.2489Z" style="fill: #ff5000"/>
        <path d="M111.38153,28.36953q1.11557-6.327,2.23123-12.65394c.27378-1.55079-.34469-2.41886-1.72247-2.41886H104.3132q-1.54215,8.74587-3.08432,17.49173H108.806A2.555,2.555,0,0,0,111.38153,28.36953Zm.21176-12.26136q-1.03912,5.893-2.07815,11.786c-.10019.56847-.39859.8566-.88742.8566q-2.54472,0-5.08939,0,1.183-6.70885,2.36591-13.41771h5.17334a.54648.54648,0,0,1,.4367.15018A.77935.77935,0,0,1,111.59329,16.10817Z" style="fill: #ff5000"/>
      </g>
      <path d="M78.59836,11.84281a3.601,3.601,0,0,0-2.87177-1.203H69.1A5.26767,5.26767,0,0,0,63.97,15.19267L61.56842,28.81372a4.12978,4.12978,0,0,0,.72052,3.43137,3.601,3.601,0,0,0,2.8721,1.20316h6.62668a5.26786,5.26786,0,0,0,5.13-4.55193q.338-1.91925.67594-3.83852h-4.667L72.41541,27.954a.89115.89115,0,0,1-.93869.84762h-4.5336a.61274.61274,0,0,1-.48887-.16506.7713.7713,0,0,1-.08078-.59964Q67.42286,22.0855,68.47232,16.134a.89025.89025,0,0,1,.9386-.84638h4.53369a.61376.61376,0,0,1,.489.16475.77159.77159,0,0,1,.08069.59856q-.26294,1.48964-.52594,2.97928h4.66831q.33127-1.87749.66266-3.755A4.13176,4.13176,0,0,0,78.59836,11.84281ZM66.51154,15.66336q-1.12519,6.38128-2.25034,12.76258c-.27094,1.53369.39142,2.3921,1.84476,2.39213H71.686a2.59588,2.59588,0,0,0,2.689-2.39213l.23767-1.35046h.58179q-.11884.67523-.23764,1.35046a3.29229,3.29229,0,0,1-3.37839,3.00471H65.99829c-1.80194,0-2.65338-1.10336-2.31766-3.00471q1.12515-6.38129,2.25028-12.76258a3.29231,3.29231,0,0,1,3.3772-3.00711h5.58007c1.80222,0,2.65482,1.10443,2.31891,3.00711q-.12474.70592-.24954,1.41184h-.58176l.24945-1.41184C76.896,14.12962,76.234,13.27,74.78061,13.27H69.20044A2.59673,2.59673,0,0,0,66.51154,15.66336Z" style="fill: #ff5000"/>
      <g>
        <path d="M96.60822,11.8425a3.60128,3.60128,0,0,0-2.872-1.20269H86.73233a5.26752,5.26752,0,0,0-5.12994,4.55286q-1.20077,6.81052-2.40158,13.62105a4.13006,4.13006,0,0,0,.72055,3.43137,3.60081,3.60081,0,0,0,2.87216,1.20316h7.00381a5.26778,5.26778,0,0,0,5.13-4.55177q1.20079-6.8106,2.40158-13.62121A4.13264,4.13264,0,0,0,96.60822,11.8425Zm-7.019,19.58815H83.63068c-1.802,0-2.6536-1.10336-2.31763-3.00471q1.12509-6.38129,2.25021-12.76258a3.29235,3.29235,0,0,1,3.3772-3.00711h5.95859c1.802,0,2.65484,1.10443,2.31878,3.00711q-1.12509,6.38128-2.25021,12.76258A3.29257,3.29257,0,0,1,89.58923,31.43065Z" style="fill: #ff5000"/>
        <path d="M92.79138,13.27H86.83286a2.597,2.597,0,0,0-2.689,2.39337q-1.12514,6.38128-2.2503,12.76258c-.2706,1.53369.39151,2.3921,1.84472,2.39213h5.9585a2.59569,2.59569,0,0,0,2.689-2.39213q1.12514-6.38129,2.25031-12.76258C94.90674,14.12962,94.24487,13.27,92.79138,13.27Zm-.26758,2.781q-1.0495,5.95174-2.099,11.9035a.88956.88956,0,0,1-.93851.84715H84.57547a.61312.61312,0,0,1-.48883-.16506.76974.76974,0,0,1-.08084-.59964Q85.05517,22.0855,86.10474,16.134a.89011.89011,0,0,1,.93863-.84638H91.953a.616.616,0,0,1,.49057.16475A.77105.77105,0,0,1,92.5238,16.051Z" style="fill: #ff5000"/>
      </g>
      <path d="M133.21063,15.368l.82617-4.686H119.74q-2.00666,11.38314-4.01327,22.76628H130.0235q.413-2.34354.82608-4.68707h-9.59024q.40557-2.3.81106-4.6H129.842l.82617-4.68723h-7.77173q.362-2.053.72391-4.106Zm-4.96087,6.14-.10987.61924h-7.77163q-.76434,4.33394-1.52866,8.66787h9.59152l-.10977.61932H118.14526q1.64841-9.34919,3.29691-18.69837h10.17618q-.0543.30961-.10858.61924h-9.59024q-.7207,4.08634-1.4415,8.1727Z" style="fill: #ff5000"/>
    </g>
    <g>
      <path d="M37.45428,34.91735c.0449.07424.22226-.35655.02335-.68333C37.46735,34.44936,37.32507,34.70424,37.45428,34.91735Z" style="fill: #ff5000"/>
      <path d="M37.58511,12.44369c.327.18071.40247.6283.47727,1.076q.00023.3765-.00009.75362c0,.2513.01245.45163.01242.70286a6.097,6.097,0,0,1,.2518-1.021,5.32458,5.32458,0,0,1-.12552-.997,1.68666,1.68666,0,0,0,.00043-.50262,2.31882,2.31882,0,0,0-.12577-.49448,1.22177,1.22177,0,0,1,.32657.68287,9.65144,9.65144,0,0,0-.3641-1.28367c.0126-.05107.13845-.05889.151-.11-.08795-.1453-.3396-.12956-.42755-.27487-.07557.055-.05054.20419-.07563.30633.08783-.106.126-.0079.17615.03921.03778.09818.07532.19637.15088.39274-.16373.161-.23917-.03542-.42773-.02356-.10059.157.1383.44372-.1258.51013.088.14531.088.3966.176.54191C37.72333,12.63618,37.62305,12.54187,37.58511,12.44369Zm.063-.25519c.03763.09819.18875.23953.11313.29455C37.72348,12.38487,37.54758,12.34559,37.6481,12.1885Z" style="fill: #ff5000"/>
      <path d="M36.18976,33.9146c-.00806-.01591-.01166-.02844-.01731-.04239-.066.169-.28775.33182-.01986.70456.0502.04717.11313.29458.13833.19242C36.16513,34.52578,36.31564,34.1581,36.18976,33.9146Z" style="fill: #ff5000"/>
      <path d="M30.61575,23.059a2.59,2.59,0,0,0,.58411-.949C30.80878,22.38461,30.80518,22.66993,30.61575,23.059Z" style="fill: #ff5000"/>
      <path d="M38.69949,32.79374,38.697,32.729l-.00714-.0114C38.69165,32.74384,38.69617,32.76839,38.69949,32.79374Z" style="fill: #ff5000"/>
      <path d="M38.53891,32.82761A1.09969,1.09969,0,0,0,38.558,32.308,2.96293,2.96293,0,0,1,38.53891,32.82761Z" style="fill: #ff5000"/>
      <path d="M38.72742,33.31837a.94725.94725,0,0,1-.15082-.39266c-.11328.20817.16351.59266.21362.89109.07556-.05492.03772-.15313.00019-.25131.07562-.055.03778.09818.07534.19637.0824-.33391-.11883-.60719-.16626-.96812C38.707,33.01305,38.70947,33.21184,38.72742,33.31837Z" style="fill: #ff5000"/>
      <path d="M38.54907,32.23122c.0033.02541.00617.05108.009.0768C38.55594,32.2801,38.55289,32.25481,38.54907,32.23122Z" style="fill: #ff5000"/>
      <path d="M37.65039,33.32813a.54439.54439,0,0,1,.07935.09819A.18034.18034,0,0,0,37.65039,33.32813Z" style="fill: #ff5000"/>
      <path d="M37.30331,35.02724c.009-.00057-.00586-.02735-.03479-.06975a.07891.07891,0,0,1-.00045.01031C37.27979,35.018,37.29047,35.04265,37.30331,35.02724Z" style="fill: #ff5000"/>
      <path d="M38.77347,13.37856l.011-.04463Z" style="fill: #ff5000"/>
      <path d="M38.77347,13.37856l-.01419.0575Z" style="fill: #ff5000"/>
      <g>
        <polygon points="25.423 32.339 25.424 32.334 25.421 32.333 25.423 32.339 25.423 32.339" style="fill: #ff5000"/>
        <path d="M25.48312,32.37267l.01346-.02558-.05685-.03541A.08391.08391,0,0,0,25.48312,32.37267Z" style="fill: #ff5000"/>
        <path d="M24.47458,33.43551a1.38567,1.38567,0,0,0-.18155.354c.05435-.07893.15237-.22529.22137-.32708v0Z" style="fill: #ff5000"/>
        <path d="M28.11838,28.76219a.08931.08931,0,0,0-.02426.0606.32954.32954,0,0,1-.01786.08673c-.05078.04616-.09356.09772-.13852.14715.01258-.00407.02216-.01025.033-.0142a.40861.40861,0,0,0-.09063.10276c-.05185.07212-.1005.14544-.15225.21752a.76331.76331,0,0,1-.05475.06551l.01446.01168c.15506-.16756.31088-.33438.46372-.4995.01718.03352.04995.03456.08111.0007a1.018,1.018,0,0,0,.09009-.10878,1.68307,1.68307,0,0,1,.3913-.45231.30541.30541,0,0,0-.24051.08883C28.35535,28.56789,28.23474,28.66333,28.11838,28.76219Z" style="fill: #ff5000"/>
        <path d="M22.34351,33.46755l-.01365.0162A.03624.03624,0,0,0,22.34351,33.46755Z" style="fill: #ff5000"/>
        <path d="M39.83109,31.59927c-.01713-.07789-.03776-.2374-.06052-.44782l-.07892.00861c-.02332-.2121-.04877-.47651-.07681-.76354a23.6495,23.6495,0,0,0-.304-2.407l-.02353-.09276.09558-.006c.04621-.003.03321-.21954.02655-.32361-.0003-.12887-.00317-.24147-.01428-.35236l-.07974.0334A4.221,4.221,0,0,1,39.11,24.93786c-.04017-.32671-.73542-6.46266-.71073-7.06424l-.00909-.00038c.00393-.09322-.01431-.42421-.03723-.8432a21.20574,21.20574,0,0,1-.05539-2.61174l.00265-.0155-.00009-.00007c.006-.03534.01013-.05968.01556-.082l.00687-.02837.02353-.0172.016-.01023c.005-.02673.01084-.05106.01666-.07424.00467-.01821.0087-.03564.01255-.05347l-.02756.00806a1.929,1.929,0,0,1-.07361-.31981,1.64589,1.64589,0,0,0-.07141-.306l-.00507-.0234a1.98387,1.98387,0,0,0-.15826-.569l-.00513-.02348a1.866,1.866,0,0,0-.04852-.28626,2.11434,2.11434,0,0,1-.05118-.2985A2.16193,2.16193,0,0,1,37.87,12.023a2.14923,2.14923,0,0,0-.06965-.26169.34276.34276,0,0,1-.08093-.088l-.03213-.04819.03607-.04534a.09672.09672,0,0,0,.02261-.05037.51911.51911,0,0,0-.02994-.23767l-.0054-.01418.00037-.01511a.65228.65228,0,0,0-.00284-.08772.866.866,0,0,0-.0509-.21621A.1913.1913,0,0,0,37.575,10.856a.111.111,0,0,0-.05456-.018.20277.20277,0,0,0-.04093-.00411l-.00708.00031-.01315-.0017a.20233.20233,0,0,0-.07452.021l-.22715.122a.22415.22415,0,0,0-.03491.00953l-.17721.07122.05209-.16041a.69367.69367,0,0,1,.06784-.14755l.00156-.00271-.01072.00294c-.06243.01713-.1419.03884-.209.06324a.51129.51129,0,0,1-.02344.18164l-.00741.0193-.04944.07966-.06775-.04745-.00009.00008.05173.05961-.03324.04255-.0542-.01031a.12045.12045,0,0,0-.03818-.00612.16581.16581,0,0,0-.10491.04316l-.03772.01767-.47956.19187.274-.21884.04568-.055-.01043-.00643a.21452.21452,0,0,0-.0889-.02379.16116.16116,0,0,0-.10757.04975.2962.2962,0,0,0-.05192.09687l-.01876.05835-.06125-.00349a.14327.14327,0,0,0-.02262.0024l-.11883.01767.0282-.11593c.01233-.04719.023-.09345.03158-.13716-.08709.02666-.16119.0427-.1961-.0203l-.07975.03045-.09082.03534-.01611-.09609c-.00833-.04866-.01041-.0496-.05017-.06579-.01376-.00565-.02951-.0121-.0466-.021a.36819.36819,0,0,1-.32181.14623c-.09753.00488-.15509.01085-.20947.07625l-.05383.06478-.06144-.05757c-.05722-.05348-.0314-.13051-.006-.19544l-.00686.0079a.48722.48722,0,0,1-.17112.14453l-.1463.0623.03818-.15429a.10755.10755,0,0,0,.00485-.05835.18768.18768,0,0,0-.04651-.01906.23541.23541,0,0,1-.17358-.14856,1.21658,1.21658,0,0,1-.52661-.04153c-.23825-.06013-.42655-.10764-.89722.21086l-.05255.03556-.04623-.04339-.01493-.01674a1.16643,1.16643,0,0,1-1.12646.29083.9687.9687,0,0,1-.43991.41994.87854.87854,0,0,0-.44284.4703.08451.08451,0,0,1-.09357.07571l-.01447-.0024c-.3009.71882-.675,1.4567-1.03756,2.172-.19007.3746-.3703.73068-.53531,1.07351l.10858-.00682-.03717.11167c-.03732.11189-.59848,1.18393-1.51813,2.93627-.49692.94673-1.016,1.93577-1.386,2.6525l-.02142.04154-.0119.00031c-.24307.34948-2.57675,4.509-2.78494,4.96333l.006.0072-.0271.04766c-2.20993,3.89324-3.22635,5.47178-3.5126,5.94207l.00421.06818h.00009v.00005l.00485.07916c-.01718.00108-.035.00218-.05273.00217A.29414.29414,0,0,1,19.777,32.267a2.83752,2.83752,0,0,0-.30634.49762,6.45371,6.45371,0,0,1,.44037-.52989,5.35384,5.35384,0,0,1-.47809.6831,1.03251,1.03251,0,0,0,.32712-.32214c-.08923.24333.01856.05232.11993-.14538a.15271.15271,0,0,0,.06977.005c-.07526.11783-.158.229-.24307.34125a.95648.95648,0,0,0-.16919.59181c.00018.02607.02813-.01268.222-.29-.01733.03743-.031.06789-.0422.09292-.02634.03961-.06461.10027-.11985.19079.03162-.03812.059-.07.083-.097-.00046.00661.0065-.00192.01621-.01766.08355-.0912.11761-.11073.12542-.09594a3.727,3.727,0,0,0-.28344.57686c.03128-.07068.155-.29517.27072-.512l-.00147.00388c.08832-.02525-.05047.11717-.07361.21155.033-.05153.07245-.11493.11536-.185.0903-.16756.17172-.31812.19638-.37375a.41545.41545,0,0,1-.052.13445c.14676-.24632.30563-.52182.4108-.71651a.7013.7013,0,0,1,.18731-.226c.08432-.06438.17557-.15711.26331-.23546l-.15106.38129a.8031.8031,0,0,0-.03662.14035,1.03029,1.03029,0,0,1-.24216.41889l.0574-.09144c-.00476.00226-.00525-.00185-.00046-.01325-.04013.06065-.09805.14871-.171.26123l-.03936.06765-.00952.01619c-.04.06881-.08094.13987-.12671.2159l.07818-.12275c-.01568.03231-.03082.06608-.04559.10209a.79546.79546,0,0,1-.04486.09461q-.15079.264-.30158.52809c.2081-.32429.37656-.58541.50052-.77594.06821-.11693.13242-.22363.20435-.32353a.55281.55281,0,0,0-.03324.06223c.08933-.13506.09452-.13757.00046.01333.051-.02419.5755-.72511.38608-.37708-.0126.05114-.49094.73441-.22659.41637.264-.31813-.56729.91791-.2276.54485-.07529.11734.468-.66074.65323-.99322-.16382.66805-.66932.99244-1.11869,1.87075-.025.10214-.302.471-.13842.30989.41519-.679.25283-.38966.74322-1.12365a1.582,1.582,0,0,1-.327.573c.05027.0471.41489-.42767.214-.11384a5.324,5.324,0,0,0,.56607-.789c.2013-.31415-.6051,1.07078-.39129.706-.18869.76532.23874-.222.0628.24131a3.45,3.45,0,0,1-.44009.52989c.01263.20014.22607-.165.25122-.26672-.00018.25093-.05011.20387-.17615.463.20148-.06283.22632-.41592.47809-.683-.41516.42775-.03784-.098.10071-.15707a1.16349,1.16349,0,0,1-.23914.467c.12592-.0079.17627-.21179.25159-.26673-.08792.35707.45761-.82.3945-.56476-.07507.05486-.21338.36514-.10025.15692.28921-.42008-.52072.82374-.30679.70983-.16346.41241.69647-1.03561.4573-.56833.17313-.10835-.39456.81584.00815.18776.025.14925-.302.471-.27686.62018a10.5016,10.5016,0,0,0,.83048-1.35837.33923.33923,0,0,1-.0303.14522l-.005.01023-.00311.005.00082-.0007c-.08978.17752-.13733.29084-.05566.17731l-.005.02526c.01874-.03411.04077-.07292.065-.11469-.01432.03974-.06528.15651-.0802.21745-.05051.05385-.05649.04392-.03534-.0038-.03617.04774-.10031.12562-.21625.26518-.17645.463.50342-.28275.67941-.49479.04074-.04555.06937-.07912.09274-.10725-.04208.03117-.15408.03484.00138-.02393-.13834-.19247.25155-.267.40274-.62831-.11331-.04332-.17581.2121-.23914.216-.12564.00791.17618-.21208.02527-.10213.15765-.15508.23053-.224.26148-.25209-.02726.01921-.03928.00444.30358-.40823-.17633.463-.298.58522-.575,1.20556.06278-.00388-.25558.40414-.16754.29811-.00635.06852.00458.09267.025.08912-.00805.01107-.01446.02223-.024.03347l.03039-.03479a.33056.33056,0,0,0,.09778-.10648l.0109-.01139.01135-.02208c.08609-.13267.17044-.30563.142-.2775l.0097-.01891a3.91917,3.91917,0,0,0,.39826-.53036c-.08777.16577-.20331.3742-.29361.53439.06387-.07234.12344-.26256.22567-.29308.01859-.03168.03672-.06348.05466-.095l-.0498.09354a.10043.10043,0,0,1,.01611-.005.19368.19368,0,0,0-.0293.02968,3.03972,3.03972,0,0,1-.16617.26843c.04584-.07328.0962-.15778.1474-.245-.08938.11624-.228.35807-.21972.28409-.02964.05253-.05557.09786-.07563.13313a.29946.29946,0,0,1,.05475-.02975c.02683-.038.058-.08616.0922-.14073.01288-.00076.0119.01652.00348.04208l.06381-.08927c-.04233.06477-.06406.09857-.04331.07369.01819-.00115.04444-.02295.07453-.05657-.06964.096-.13544.21979-.18137.27634.06088.00279.23233-.35085.20856-.25418l.01053-.00945c-.11933.19793-.19867.33948-.14118.28292-.05752.23465.16111-.16683.23685-.35127.07816-.00334-.34146.6032-.14758.36747l-.00019.00054c-.03653.05687-.01492.04371.03278-.00558.00388-.0166.00851-.03407.012-.05044l.04615-.05867-.031.0799a2.46662,2.46662,0,0,0,.29233-.38932c.06277-.004-.01267.05105-.02518.10213.115-.12639.11878-.10408.089-.04378l.0228-.03581c-.00665.09221.02643.084.07306.03116-.06571.16017.12362-.07829.30578-.43466a6.249,6.249,0,0,1-.70083,1.21354c.27682-.11779.05911.133.33572-.23574-.02512.10213.24313-.35332.12982-.14514.46537-.63193-.34506.63868.15821-.14638-.13346.26083.06668-.00891.21029-.23341a.16421.16421,0,0,0,.06766-.013c-.37714.52616-.47394.54587-.87653,1.17432-.44839.575.07657.15416.55115-.51688.00992-.014.02-.02926.02884-.0439.40375-.658.51453-.73506.8627-1.40288a.32377.32377,0,0,1-.04431.17188,7.42922,7.42922,0,0,1-.782,1.55218c.05047.047.25128-.26705.12561-.00791a6.46253,6.46253,0,0,0,.71832-.9339c.39581-.70487.45544-.73.58008-.7.05029.01378.0105.37415.19546.13662a.634.634,0,0,0,.13962-.354A.35724.35724,0,0,1,25.416,32.36l-.00586-.00131a.17687.17687,0,0,1-.08854-.03914l-.06445-.01255.07031-.1491.007.0007.08112-.101.0184-.0079a.1168.1168,0,0,0,.04211-.02984l.21854-.24434.059-.043.05914.04928.00833.01062c.04728-.02906.09134-.05743.13321-.08416l.023-.01472-.02124-.00706-.08093-.02611.04761-.11531c.01684-.04674.0293-.09492.04175-.14305.0108-.04208.02191-.08416.03524-.12546a.73007.73007,0,0,1,.05137-.10074.77782.77782,0,0,1,.06362-.07494.12389.12389,0,0,0,.02921-.06106l.00586-.02418.0184-.01651a.13094.13094,0,0,1,.09952-.04176l.00961-.017a16.96236,16.96236,0,0,1,1.28687-1.82124.96835.96835,0,0,1,.34222-.383,3.84218,3.84218,0,0,0,.29224-.31679l.08835-.10089-.03516-.01759.11325-.07052.09485-.13275L28.478,28.095a.18413.18413,0,0,1,.051-.05324l.04129-.03177.00595.00178.00385-.0024.2406-.11275.0358.02053a.17243.17243,0,0,1,.03277.02395l.05649-.04084a.44355.44355,0,0,1,.07571-.02828l.02774.07431.05576-.0513a.72723.72723,0,0,1,.06152-.04882l.01483-.01085.10016-.01712.02481.09368a2.49931,2.49931,0,0,1,.38846-.11693c.08-.01968.15573-.03828.21689-.058.10336-.01436.17581-.02417.21533-.0324a7.31953,7.31953,0,0,1,.75659-.12158c.11316-.01473.21174-.02758.27558-.03766a2.38086,2.38086,0,0,1,.6947-.04913c.06.00115.12445.00239.19382.0031a3.97274,3.97274,0,0,0,.99-.06169,2.17182,2.17182,0,0,1,.63144.04658c.10724.01766.209.03449.29782.04262a.13415.13415,0,0,1,.03973.00046l.04843.007.01557.04641a6.7632,6.7632,0,0,1,.36,1.90338c.00989.36127.02552.68868.04807,1.001.00595.08316.01334.172.02719.25875.00647.04184.01532.08308.02527.12414a.47323.47323,0,0,1-.012.23667c-.0066.028-.01374.05734-.01859.0902a.17831.17831,0,0,0,.036.13507.18469.18469,0,0,0,.12085.07168l-.00961.07919a9.08532,9.08532,0,0,0,.61441,2.69557,1.70438,1.70438,0,0,0,.02261-.586c.01044.0248.01325.02154-.00366-.0451.06232.05842.05493-.02044.02911-.11523a2.79816,2.79816,0,0,0,.25388.52641c-.03073-.1201-.06095-.24-.09293-.35422a.05946.05946,0,0,1-.01391-.01767l.00695-.00651c-.03167-.112-.06488-.21823-.10089-.31237-.04855-.19072.08542.18722.10923.30439.03262-.03046.05532-.02442.0693-.00178-.04724-.2431-.136-.55786-.17166-.70921-.02466-.12385-.00214-.07938-.02481-.18394.00848.01087-.00946-.08654-.00861-.10138.00064-.01215.00309-.06934.01767-.04323.00876.01565.017.03145.02527.04743l.00723.01434c-.00723-.01442-.00174.03632.00129.04227.0064.01346-.00129.03382.00512.04729.03119.06668-.00567.15768.03159.21934a2.55273,2.55273,0,0,0,.1561.50443.70012.70012,0,0,1,.07974.2324c.06293.24728.20337.16249.16571.06432-.04727-.2833-.17307-.47109-.19657-.66078l.00623.00472a3.42863,3.42863,0,0,0,.27805.68512c.04443.04159-.075-.16079-.11582-.38274.021.07253.05142.11741.08331-.01155.03766.09819.20112.18854.16343.34159a.50693.50693,0,0,1,.12576.13608.61747.61747,0,0,0,.02805-.12856.282.282,0,0,0,.00347.044c.07547-.055-.02493-.40026.1008-.15708-.0253-.149.1381-.19367.07572-.44109-.07541-.19622.18191.46417.10647.26789.33948.38091.1139.59633.37793.78082.04093.06735-.20541.17783-.19015.2417.21783.08369.1582.08942.24518.2331a.641.641,0,0,0,.08276-.40212c-.01935.02983-.07587-.1487-.05585-.25665a1.10357,1.10357,0,0,1-.08523-.1408c.03378.02247.0123.00342.1008.09818l.00692-.01186a.03883.03883,0,0,1,.01813.007,1.28125,1.28125,0,0,1,.0914.196l.035-.02417.00595.00674c-.00956.015-.0203.03024-.031.04533l-.01-.0279c-.04873.03278-.09677.06578-.07763.08834.007.01419.01351.02845.02157.04146a.0962.0962,0,0,0-.01041.08432l.07187.08416L37.1,34.4813a.15621.15621,0,0,0,.032.02085.40654.40654,0,0,1,.05136.07966c.001.13143-.06515.27231-.03113.30439.04395.04074.11475.15158.11582.0816-.02207-.09447-.04673-.28316-.09339-.48875a.82026.82026,0,0,0-.02408-.11112,2.12651,2.12651,0,0,0,.2927-.06758l-.00586-.01286-.02838-.03379a.2461.2461,0,0,1-.00073-.03076c-.06553-.15142-.0488-.18575-.00049-.17707a.21219.21219,0,0,0-.01078.0513c.00849.01967.01825.041.02912.06447a.581.581,0,0,1,.05145.07238.32474.32474,0,0,0-.03635-.17839c.0933.037.23978.14313.25489.04332a.04893.04893,0,0,0,.04779.02666.65785.65785,0,0,0-.02948-.22078.51037.51037,0,0,1,.10986.19172.30053.30053,0,0,0,.071.14142.62068.62068,0,0,0,.09512.12857c.11319.29448.058-.18028-.04266-.27448l-.01447.001a.405.405,0,0,0,.04083-.04448l.01447.04448.00677.01682a.03079.03079,0,0,1,.00888.03c.05219.15636.1272.37175.18769.55523a.66422.66422,0,0,0-.07846-.36561c-.03769-.09818.1838-.18822.14608-.28633-.0328-.08487.01584-.1529-.0148-.212.00385.01149-.00036.02271-.03012.02457-.10055-.09422-.0126-.20032-.11316-.29455-.03784-.09818.03772.0982.02509.14918-.22626-.08631.02533-.2368.00027-.386.00559-.02346.01346-.03356.022-.03557a.3178.3178,0,0,1,.09722-.2503c-.2518.01574-.01254-.20023-.15087-.39234-.063.00393.02517.149-.05027.20388-.0628.004.05023-.20389-.05029-.04711a1.01554,1.01554,0,0,0-.02515-.5919l.01453-.01053c.03647-.02534.07529-.04735.11392-.06982a.97529.97529,0,0,0,.08542.15816c.07529-.055-.02505-.14926-.01254-.20032a.87213.87213,0,0,1,.21695.38251l.00451-.02023a1.482,1.482,0,0,0,.071.43179l.007-.003a2,2,0,0,0,.04467.62692c-.01269.05109.03779.09818.02509.14925.03793.09818.11295.04317.063-.004l-.11325-.29447a3.47985,3.47985,0,0,0-.00073-.49115c.07672-.09887-.03943-.65274-.01639-.74625.0404-.01721.06335.03246.07635.11135-.01108-.08786-.02359-.17148-.035-.24255a.20231.20231,0,0,0,.02646-.00945.18974.18974,0,0,0,.0346.04107.19189.19189,0,0,0,.04194.03208,3.18638,3.18638,0,0,1,.07992.67666c.17233.232.10379.56455.291.70783a1.45422,1.45422,0,0,0-.034-.2834c.00009,0,.06277-.00394.0502.04712a1.02606,1.02606,0,0,0-.11307-.54578,2.15771,2.15771,0,0,1-.15966-.56617c.005.00023.01028.00162.01565.0014l.02106-.00248c.14068.08935-.045-.02983.05966.24263.088.39662.13821.19234.02521-.10213a3.53372,3.53372,0,0,0,.23877.53764,3.58448,3.58448,0,0,0,.239.538.42035.42035,0,0,0,.00006-.25139q-.05653-.14713-.11313-.29439c.12555-.00791.16376.0902.1886.23945a2.17234,2.17234,0,0,0-.25149-.73788c-.02433-.14668-.06778-.28016-.10328-.41381a.33292.33292,0,0,0,.08808-.10493.69778.69778,0,0,1,.09082.46364c.18841-.01178.01251.20034.17605.03936.06223.74975-.24459.273.19547.74789a1.17519,1.17519,0,0,1,.18786.26014,10.265,10.265,0,0,1-.44613-1.50669c.11322.04316.05023.29832.15088.39258.05041.04719-.063-.2473-.10056-.34547a2.75669,2.75669,0,0,1,.35169.58112c.07534.19638-.0781-.27627.06042-.08377-.00009,0-.02524-.14915.01254-.051a1.03835,1.03835,0,0,0-.06283-.49843.929.929,0,0,0-.06305-.3333c.11313.04327.0256-.01611.06308.08191C39.8815,31.73226,39.93179,31.69349,39.83109,31.59927Zm-18.90262.12927c-.03443-.02805-.07813.01063-.10456.04355.01657-.02682.04166-.07012.0803-.14089C20.92651,31.76239,21.03223,31.59152,20.92847,31.72854Zm2.35913.86747c.02734.01076.0083.07524-.0347.16444a.99381.99381,0,0,0-.16342.19218C23.18237,32.78835,23.25964,32.64745,23.2876,32.596Zm-.26413.68852-.00138.0093-.00659.0038-.04147.06788a.55779.55779,0,0,1,.01849-.05378.27956.27956,0,0,0-.04083.03759c.01834-.02449.03714-.05115.057-.08044l.00915-.01992.00357.00117c.17917-.26944.39652-.681.37922-.61111A3.74351,3.74351,0,0,1,23.02347,33.28453ZM33.69376,23.24286a10.50208,10.50208,0,0,0-1.48325-.06192,1.00245,1.00245,0,0,0-.32327.0627,1.20326,1.20326,0,0,1-.3425.06982l-.01428-.00016-.038-.001-.023-.03014a.13611.13611,0,0,0-.07992-.05665,1.14038,1.14038,0,0,0-.27558-.001.184.184,0,0,0-.02847.00256l-.1875.02023c-.10135.01015-.20175.02325-.30231.03634l-.107.00752-.12277-.00062.051-.11167c.14279-.31315.349-.74494.53165-1.12612l.0141-.02039a1.57218,1.57218,0,0,0,.1918-.38079.35424.35424,0,0,1,.01538-.21008l.006-.02093a1.52489,1.52489,0,0,1,.04972-.15646c.0158-.04.03314-.07927.05044-.11856l.01813-.04115a.13983.13983,0,0,1,.11-.08206l.04037-.00256a33.8845,33.8845,0,0,0,1.46164-3.28616l.00687-.02813.02343-.017a.87987.87987,0,0,0,.104-.12283.63059.63059,0,0,1,.16635-.17653c.1022-.163.23868-.41366.33032-.58205l.15784-.09818-.01108.155c-.01144.04641-.02689.1728-.04028.28432-.01252.10421-.02466.20365-.03608.26688l.083-.06044-.11407.4431c-.04227.883.1243,2.86017.2351,4.16988.04673.55323.08384.99029.09238,1.19378l.00357.08284ZM35.277,32.27842l.04907.05687c.00955.011.021.0276.03287.04278A.20463.20463,0,0,1,35.277,32.27842Zm.111.12925V32.4076l.00147.00124Zm.8118,1.2543a.45508.45508,0,0,0-.03479-.16483C36.25845,33.53279,36.20718,33.5675,36.19983,33.662Zm.94537.41644a.24621.24621,0,0,1-.00128-.09686l.00613.00728A.10264.10264,0,0,1,37.1452,34.07841Zm.46573-.28548c.05063.01923.057.08946.06033.16041C37.65738,33.90948,37.63828,33.8572,37.61093,33.79293Zm.25662.33942c-.01373-.03841-.02826-.08616-.04541-.13584a.26147.26147,0,0,0-.06353-.16483,2.217,2.217,0,0,0-.136-.33562.47566.47566,0,0,1,.00146-.10888c-.023.00966-.0245.01273-.00686-.05812a1.71573,1.71573,0,0,1-.15052-.64365c-.02478-.14927.05048.04712.03763.09818a2.79632,2.79632,0,0,0,.15592.4662c.02685-.05284.06555-.07192.11453-.004.07553.19645-.02542.2369-.01273.43713.06354.10509.11786.18117.17154.2882A.95312.95312,0,0,0,37.86755,34.13235Zm.46811-2.13981.00257-.00147.00564.02666Zm.27658-8.97846c-.03762.15306.08744.39622-.06326.50619C38.57419,23.4182,38.52414,22.8688,38.61224,23.01408ZM38.574,24.17221c.02521-.10215-.06286-.24734.01264-.30245C38.56158,23.97188,38.64929,24.11718,38.574,24.17221Zm.025.40048.02518-.10213s.06289-.00388.05026.04711C38.66144,24.56874,38.59906,24.57269,38.599,24.57269Zm.08807-.106c.01245-.05105-.05041-.04711-.05035-.04711a.23287.23287,0,0,1,.1008-.15716C38.72485,24.31348,38.7124,24.36455,38.687,24.46668Zm.05054-.70688c0-.25131.01266-.5533.1636-.66327C38.775,23.35567,38.86334,23.50066,38.73758,23.7598Z" style="fill: #ff5000"/>
      </g>
      <path d="M27.30466,30.14349c-.31928.04724-.5683.42411-.81739.8012q-.16291.3394-.326.67947c-.10873.22661-.20449.40276-.3132.62927a7.23609,7.23609,0,0,0,.25608-1.00956,6.477,6.477,0,0,0,.52386-.85445,2.06666,2.06666,0,0,1,.21716-.4533,2.75975,2.75975,0,0,1,.30661-.40132,1.34666,1.34666,0,0,0-.53622.5001,11.35532,11.35532,0,0,1,.82388-1.02846c.01261-.05051-.07644-.10208-.06372-.15256.1279-.09987.30625.00332.43414-.09652.03177.0763-.05111.20192-.07681.3029-.01892-.12676-.08941-.05165-.14685-.02695-.07043.07518-.1405.15031-.28107.3007.05082.203.19138.05261.32547.13008.0062.17716-.29385.35113-.12789.50444-.12793.09984-.23639.32645-.3642.42629C27.11945,30.26809,27.23444,30.21866,27.30466,30.14349Zm1.17489-1.522c-.07028.07519-.24258.14922-.21084.22552C28.33929,28.77186,28.48572,28.79872,28.47955,28.62151Z" style="fill: #ff5000"/>
    </g>
    <path d="M25.633,12.27395l.00274-.0155-.12579-.0121-.004.02285c.04071.0012.08478.00344.12708.00475m-8.53235,7.6688c.04553-.00751.091-.01425.13687-.02176l-.00147-.02486-.13742.02508.002.02154m9.008-7.46536.16205.00142.00055-.00821c-.05194-.0086-.104-.01638-.15692-.025l-.00568.03182M9.828,34.2359c.06424-.04591.04953-.10969.06-.16765-.021.05558-.03989.11123-.06.16765m10.9986-12.58109c-.02912-.00532-.05835-.01148-.09787-.01841.00244.02331.00348.04073.00787.06831l.09-.0499m.62292,1.55214.0098-.01753c-.03394-.01635-.06854-.03285-.1062-.05119-.01441.094.0603.05464.0964.06872m-5.0646-3.163c.04062.00285.08047.00727.1268.01138-.0322-.06261-.06784-.06508-.1268-.01138M9.61,33.39534a.21973.21973,0,0,0,.07241-.19975c-.02624.07162-.04925.13611-.07241.19975M26.79361,10.98291c-.05405-.01535-.1077-.03064-.16141-.04682a.18084.18084,0,0,0-.01282.02967c.05509.01377.11045.02757.164.042l.01025-.02489m-.69882-.19427c.08059.0081.14889.01372.227.02165a.24647.24647,0,0,0-.227-.02165m-9.39,9.32883c-.05642.011-.10379.01925-.15133.02749l.00274.01253c.04261.00385.08649.00768.13495.01281.005-.01874.00983-.03576.01364-.05283m4.2204,1.71608c.05579.01056.10217.01873.16187.03031-.0644-.08459-.0998-.092-.16187-.03031m1.17682.67052a.05134.05134,0,0,0-.033.025c-.00336.00555.00421.02341.01355.02736a.07543.07543,0,0,0,.04.00039c.03018-.00869.05807-.01995.099-.03357.00174.005-.00095-.01-.00568-.01032a.87058.87058,0,0,0-.11389-.00883m-1.17462,1.52879c.00714.00138.01874-.02094.03506-.03716-.06155-.006-.10592-.00991-.1604-.01535.02371.0645.08206.04622.12534.05251m-.43973-.091.205.01925a.14058.14058,0,0,0-.205-.01925m-7.40149,9.80979.02582.00585c.03036-.09118.05911-.18168.09045-.27289l-.0282-.00612c-.02874.09138-.05853.18272-.08807.27316m12.79614-19.0975c.0055-.11122-.11126-.04172-.15738-.09775.018.07644.06311.101.15738.09775m-8.41662,5.17869c-.08585-.03-.12485.05651-.18933.07678a.16891.16891,0,0,0,.18933-.07678m8.768-7.8358c.0568.08081.11039.08788.22861.02178-.08307-.00828-.15851-.01522-.22861-.02178m-4.84973,9.38945a.13651.13651,0,0,0-.04651-.01645.86929.86929,0,0,0-.0953.00491c.02514.03391.05041.06877.07251.09924.01315-.01569.02938-.03268.04339-.05066.00986-.01253.01706-.0253.02591-.037M16.99921,10.189a.30594.30594,0,0,0,.10922-.00723c-.22571-.048-.28943-.03923-.3306.04793a.2191.2191,0,0,1,.22138-.0407m8.81369,2.26775c.07986.00724.14718.01361.21551.02a.1391.1391,0,0,0-.21551-.02M25.21066,14.546c.0969.00929.19.01829.29526.02807a.27661.27661,0,0,0-.29526-.02807m-5.9295,5.3502c-.026.09313-.01193.10487.07489.082a.42975.42975,0,0,1,.086-.00392c-.01111-.0982-.12354-.02107-.16086-.07813m2.76947,2.68447c-.02854-.06974-.15115-.05771-.26422.0327.0856-.01049.17166-.021.26422-.0327M9.1524,34.41671c.01154-.07362.02961-.14749.046-.22483a.51258.51258,0,0,0-.1343.26983c.05517.0196.07965.00722.08834-.045m5.69065-24.25212c.097.01753.20132.03553.31366.0558a.23957.23957,0,0,0-.31366-.0558m6.49658,11.47a.161.161,0,0,0,.15839-.0294c-.02356-.0323-.02137-.08246-.08579-.05891a.82947.82947,0,0,1-.117.02323c.013.02154.02206.05359.0444.06508M9.26236,33.84774a1.03446,1.03446,0,0,0,.15335-.50309c-.04959.16589-.10043.33242-.15335.50309M22.11407,22.79242a.12239.12239,0,0,0-.1625-.02707c-.0202.00939-.02857.03934-.04312.059.02325.01068.04815.03478.0683.02955a.98908.98908,0,0,0,.13732-.06144m-6.93438,4.733.01263.00917c.01254-.00414.02384-.0091.04129-.0161l-.03387.162.01639.002c.03662-.1156.074-.23191.11068-.34829l-.02453-.0075c-.04013.06658-.08133.13224-.12259.19875m5.87887-4.19956a1.12115,1.12115,0,0,0,.39276.01175c.06266-.00969.12406-.01032.18531-.01672.02395-.00247.04934-.00984.07443-.01388l-.0033-.01421c-.22223.01175-.444.02263-.6492.03306m-4.00964-3.73116c-.0791.01182-.158.02451-.25186.03858.08414.11325.182.09042.25186-.03858m3.89474,1.98573c-.00778-.00872-.01492-.02417-.02233-.02469a.49573.49573,0,0,0-.17057-.01028.21613.21613,0,0,1-.20215-.0339c-.01992.01837-.03683.03214-.051.046.13794.01457.27576.03.41391.043.00836.00059.02081-.01348.03213-.02012M20.14413,10.185c-.11093.01208-.22244.02409-.3327.03622l-.002.02051a.26915.26915,0,0,0,.33471-.05673m-4.551.13036a.10518.10518,0,0,0-.13293-.07043c-.07953.01426-.15711.027-.24006.04187.11072.06887.24268.00871.373.02856m11.61905,3.16284a.24694.24694,0,0,0,.28985-.021c-.077-.07229-.18057-.06633-.28985.021M14.72055,28.26076c-.01437.09982-.01889.2002-.02838.2996l.007.0029c.04758-.13459.0939-.26936.14126-.40727-.06771-.00473-.10916.0262-.11993.10477m11.64661-15.99a.481.481,0,0,0,.27813-.01608c-.03384-.04946-.07528-.08953-.13659-.069a.23728.23728,0,0,1-.18933-.00333c-.00428.05339.00518.078.04779.08844m.54391,1.67628c-.29489.00165-.59146.0049-.8638.00736a2.16951,2.16951,0,0,0,.8638-.00736m-10.147,5.45344a.15483.15483,0,0,0,.04266-.06564c.02912-.14747.05744-.29419.07975-.44222a.32773.32773,0,0,0-.02628-.115l-.02316.0083a3.12567,3.12567,0,0,1-.073.61455m-.72821-8.88978a.91.91,0,0,1-.33673.03511.35.35,0,0,0,.1593.05c.13748-.00527.27371-.02383.41061-.03737a.26848.26848,0,0,0-.23318-.0477m2.99194,9.30493c-.0733-.01419-.1524-.01646-.22815-.02415l-.01181.01894q.15646.08784.30918.17535c.02334-.09264.00277-.1568-.06922-.17014m8.61475-6.60229a.16008.16008,0,0,1,.03561-.00246c-.00934-.00973-.01739-.0285-.02756-.02837-.05233.00131-.10635.00577-.15847.01123a.3773.3773,0,0,1-.06482.012.99386.99386,0,0,0-.38617.04983l-.0022.02133c.0986-.008.197-.016.29617-.02308.0474-.00329.10422-.02163.14054-.005a.07082.07082,0,0,0,.08487-.00728.29041.29041,0,0,1,.082-.02814m-9.48157,6.393a.10294.10294,0,0,1-.10171.04088.49762.49762,0,0,0-.16626.04534l.00119.01657c.07931-.00353.1578-.008.24737-.0124-.0003.00654.00025.02151.001.03641.08249-.02067.16427-.04054.24673-.0612a.07642.07642,0,0,0-.08267-.052c-.04568-.00156-.08969-.00791-.14566-.01356M13.91782,9.96853a.27444.27444,0,0,1,.24023.01763c-.00464-.07716-.00915-.137-.01428-.21084-.1203.06429-.22534.11891-.32886.17445l-.00311.01713a.34716.34716,0,0,0,.106.00163M10.13788,33.33394a.66074.66074,0,0,0-.054.17135.874.874,0,0,1-.0769.31355.765.765,0,0,0-.04065.18549l.01565.00611c.0098-.02243.02115-.044.02939-.06657a1.90294,1.90294,0,0,1,.07709-.235.40819.40819,0,0,0,.06445-.29534c.01078.014.02091.02866.03278.046.01407-.00892.03079-.01847.06372-.03852-.08026.00017-.10272-.03282-.11151-.08713m.09375-20.93411c.01657-.0137.04562-.02654.04834-.04122a1.27115,1.27115,0,0,0,.02-.239c-.00437-.06475-.049-.08109-.131-.067a.34533.34533,0,0,0-.00513.07978c.01013.07506.0227.14865.03644.2223.00427.01684.02075.02953.03131.04514m5.255,13.89375-.01492-.00519a.41206.41206,0,0,0-.04825.0826c-.02963.08547-.05386.17135-.076.2475a.2796.2796,0,0,1,.03562.08182.30379.30379,0,0,1-.02.09276l-.07315.36336c.04648-.05875.0422.02032.06482.01109.01806-.08712.03528-.17355.054-.26475-.01641.00714-.02783.01135-.05163.022.04465-.2174.08572-.42444.12945-.63122m3.22916-6.63691c-.06268.00553-.12378.00463-.18576.01014a.385.385,0,0,0-.07388.02953c.07458.026.1286.04369.182.06237.06964-.03482.14527-.07246.21588-.108l.0087-.044a.20659.20659,0,0,1,.0521.0127c.01184.00825.0155.02584.02233.03877.04072.06722.10169.07234.17432.0171a.3712.3712,0,0,0-.38562-.06581c.01758.00374.0318.008.04651.01154a.09062.09062,0,0,1-.05658.03566m6.4866-7.6367-.008.02587a.87688.87688,0,0,0,.1571.03825.63256.63256,0,0,0,.15372-.0223.78784.78784,0,0,1,.34763.0111l.00439-.0154c-.05319-.01529-.10641-.03139-.15967-.04751l-.00073-.0141c.04324-.0077.087-.01457.13284-.02292-.15585-.13481-.35483-.03638-.53531-.04239.06668.00713.13138.01331.20307.02-.0893.12015-.19666.0672-.29508.06942M15.68835,25.51542c.01395-.0502.02121-.1001.03086-.14984l-.01493.023a.37022.37022,0,0,0,.01822-.102c.00534-.06654.0076-.13246.01126-.19911.00217-.02133.00675-.04251.00971-.0638l-.01236-.00086c-.03522.16937-.06976.33884-.10364.50579-.02521-.01333-.04614.00014-.053.03437a.89657.89657,0,0,0-.01712.1053,1.22661,1.22661,0,0,1-.07461.44585.253.253,0,0,0,.12176-.15754c.03754-.11131.078-.22171.11463-.33232a.07366.07366,0,0,0-.00834-.04771.20809.20809,0,0,1-.02243-.061m-.53393,1.55712a1.00106,1.00106,0,0,0-.08478.15108,1.60461,1.60461,0,0,1-.26907.52314.22537.22537,0,0,0,.26678-.16312c.05539-.1837.10343-.36865.15967-.57127a.34347.34347,0,0,0-.0726.06017m.61532-16.69693c-.0267-.00022-.05105-.00026-.09613-.00011a1.39274,1.39274,0,0,0,.5701.02086c-.04944-.01336-.09893-.02756-.149-.04181a.22759.22759,0,0,1,.10931-.0031c.05582.01134.07785-.00034.09558-.06188-.05969.00655-.11963.01312-.17834.01975,0-.00415-.00022-.00829-.00019-.01324.05863-.01408.11954-.028.17981-.04194l-.00073-.01906c-.16788-.01587-.3353-.03336-.50455-.046-.01648-.00117-.03656.02718-.05694.04228l.01181.01405c.021-.006.04385-.01181.08413-.02221-.0364.03132-.058.04963-.08367.071-.01334-.029-.0228-.05034-.0369-.07942l-.045.04065c.041.03757.07773.07071.11435.10466l-.01365.01556m-2.02468.345a.21483.21483,0,0,0,.212-.08679c-.08505-.01172-.14053.04222-.212.08679m-.54328-.176c-.02792-.03087-.05246-.05738-.06619-.074.03448-.06285.0672-.11922.09677-.17664a.147.147,0,0,1,.14383-.08908c-.00937.02414-.017.04757-.0314.087a1.15677,1.15677,0,0,0,.19363.00694,2.11124,2.11124,0,0,0,.288-.06248.62217.62217,0,0,1,.2752-.03281.08641.08641,0,0,1,.03663.015.70212.70212,0,0,0-.39908.10346,1.90669,1.90669,0,0,1,.26751-.01766,3.278,3.278,0,0,1,.41053.05267,1.6835,1.6835,0,0,0,.50995.00592.12718.12718,0,0,1,.08551.01754.58738.58738,0,0,0,.25213.10108c.07758.0112.15387.03307.23117.05l-.00631.021c-.18409-.01784-.36725-.04219-.5528-.05187a2.34742,2.34742,0,0,0-.65561.03181.79946.79946,0,0,0-.37976.20146c.02075.04276.0553.03278.09.01125a.0701.0701,0,0,1,.10583.01648c-.1297.0157-.24438.02918-.36667.04376.006-.06568-.0455-.07341-.10647-.07354a.72005.72005,0,0,1-.12607-.01046c-.04718-.00744-.05811-.04041-.0336-.07918.02637-.03948.06232-.07247.09-.1102a.186.186,0,0,0,.04551-.077c.01031-.072-.03162-.09887-.10025-.06649-.04471.02082-.08573.05017-.13257.07747-.06909-.04861-.09613-.0373-.16544.07849m1.91648,15.37617c-.00879.02587-.01661.05012-.02454.07182a1.32579,1.32579,0,0,1-.01593.19714l.00073.00006a.50574.50574,0,0,0,.03974-.269m-3.46363,8.01572c-.0043.01868-.0101.03728-.01584.05585.02381-.0206.04566-.04142.06812-.063-.01633-.01684-.03214-.03192-.047-.04617a.21042.21042,0,0,1-.00531.05331m-.15527.18576q.018-.0732.03442-.14631c.03086-.13009-.11032-.01437-.28784.15085l-.00375.01631.04532-.001c-.00641.02267-.01374.04367-.019.06393-.03082.13086.08124.05106.23081-.08381m-.39761.03417a.60929.60929,0,0,1-.0304-.13851c-.04361.06218-.08926.12512-.13412.18888l-.00348.00554-.00074-.00082c-.00708.01182-.0158.02364-.02481.03624a.43087.43087,0,0,0,.19355-.09133m-.15995-.29869c.02-.02261.03955-.04349.05841-.06454l-.00549-.04415-.02371.00162c-.009.03572-.01978.07141-.02921.10707m-.43982-.76442c.02738-.13523.05661-.26952.079-.40507.02033-.11423.03785-.2303.05649-.34466a.34751.34751,0,0,0-.04074-.21682,2.55583,2.55583,0,0,1-.133.417c.01938.22025.03092.41763.03827.54955M10.379,31.05083a.93779.93779,0,0,0-.07929.24727,3.97047,3.97047,0,0,1,.08835.50274,2.12347,2.12347,0,0,0,.01328-.33207l-.02234-.41794m1.02154,2.88946a.647.647,0,0,1,.2038-.11056c-.013-.01161-.02322-.02062-.02838-.02425-.0372-.0232-.07468-.0449-.11051-.06478a.49556.49556,0,0,1-.06491.19959m.01072-.18189c-.04313.09115-.091.18121-.13559.27225.04-.02863.07818-.05657.115-.082a.1595.1595,0,0,1,.00705-.054.22215.22215,0,0,0,.02078-.17695l.00046-.00248-.00092-.00006a.0973.0973,0,0,1-.00677.04328m-.13367-.02419a.38143.38143,0,0,0,.00641.14174.18752.18752,0,0,0,.01062.02966c.07431-.05515.06613-.13665.09741-.20387-.02118-.01144-.04419-.02372-.06574-.03439l-.0487.06686m-.36319.3051.01776-.03847a.49585.49585,0,0,0,.06766-.13078l.00027-.00162c-.02814.03609-.05835.07361-.09128.11342-.0075.02762-.01416.05607-.02078.08365a.31435.31435,0,0,0,.02637-.0262m11.68268-23.796c.04129.00206.08352.005.1257.008-.03821-.04728-.06464-.05-.1257-.008m2.03357,1.79777c-.00006,0,.003.01673.00952.0172a.38371.38371,0,0,0,.23712-.02142c-.00021-.00746.0004-.01487.00064-.02226-.08185.00913-.16217.01758-.24728.02648m.66989.84407a.27859.27859,0,0,0,.27942.03689c-.03876-.08616-.14484-.09769-.27942-.03689M15.24487,25.07055c.006-.03842.00495-.05913-.00668-.06987-.02216.08191-.05841.20083-.10153.325.00055.03965,0,.07933.00046.119.00582.00041.01-.00017.01675.00031.00507-.00619.01282-.01146.014-.018.027-.11868.05743-.23723.077-.35643m-.18942.6914a.18746.18746,0,0,0,.02875-.17061c-.01062.05043-.02.10269-.03195.16055l.0032.01006m.08038-.58173c.02555-.07252.04758-.13875.06665-.19032a.36419.36419,0,0,0-.06747.00771c.00092.0604.00006.12144.00082.18261m-2.09,7.13446c.03506-.10914.07236-.21808.11-.32608-.0155-.03918-.05847.10243-.11.32608m4.66507-12.36636a.45938.45938,0,0,0,.298.10672l.01483-.0221a.60717.60717,0,0,0-.1257-.06411,1.26786,1.26786,0,0,0-.18713-.02051m.56634.15025c.054.03519.10849.07044.16269.10554.00955-.00753.01834-.01433.02884-.02112-.01221-.03555-.01172-.08919-.03781-.10259a.40429.40429,0,0,0-.14172-.01646l-.012.03463m1.82712,1.38025c.02045.03036.03064.0484.03561.05367.047-.00662.08185-.01251.11527-.01758-.00467-.00688-.01523-.01842-.02564-.0307.07468-.00962.08024-.01338.08268-.0694-.05237.0402-.103.05729-.12946-.00983-.02328.03145.00009.08839-.07846.07384m.32236.771a.22073.22073,0,0,1-.00879.03081l.11224-.01037a.09582.09582,0,0,0-.10345-.02044m5.40143-9.38222c.01971.01129.03674.03231.05758.03376a1.58148,1.58148,0,0,0,.22412,0c.06217-.00641.1265-.02916.19043-.0404.01477-.00309.03235.01134.04789.0174l-.00577.00869c.09829-.00222.19552-.00369.30057-.00625a1.11725,1.11725,0,0,0-.81482-.01319m.837.11388c.05512-.00277.1037-.00513.16873-.008-.07922-.05677-.119-.0546-.16873.008m-6.158,8.29828c.08377.00835.15634.01509.24335.02367-.1005-.09291-.157-.09938-.24335-.02367m.07324.99488c.04453.06424.09085.0716.18869.02562-.03479-.12387-.12683-.01467-.18869-.02562m.33445-.046a.15322.15322,0,0,0,.19024.04964c.04361-.01507.08512-.03532.12891-.05209.038-.0147.05566-.00692.03845.02832.07565-.00627.14713-.01369.23126-.021-.18789-.13786-.38681-.04942-.58886-.00484m-.065,1.99471c.015.01426.02649.0299.04377.0501a.2373.2373,0,0,1-.1756.00921,1.54478,1.54478,0,0,0-.15033-.04357l-.01694.0154c-.02621.08984-.027.09554-.124.0904a.7272.7272,0,0,1-.20014-.04117.1751.1751,0,0,0-.19656.03743c.0115.0149.02225.03046.03287.04529.00842.0138.01843.0277.03515.052-.06494-.0062-.11688-.01068-.17038-.016l-.00686.02014c.05539.02371.112.04667.16745.06954l-.00669.00946c-.0607-.01081-.12088-.02167-.18576-.03275l-.01941.07131a.27208.27208,0,0,1-.0347.00249,18.50081,18.50081,0,0,0-3.59362.2634c-.14951.01845-.47684.07489-.62705.09658-.10309.01518-.2052.02207-.31357.03262-.01336.11223-.02771.22195-.04.33184-.00684.06227-.01276.12382-.02125.18435.05668-.17118.095-.289.07151-.2081.01925-.03259.03836-.066.05456-.09951-.03277.09853-.08368.24945-.13513.40528-.01535.14272-.02981.28542-.04724.42878-.02057.19517.42865-1.14068.40311-.94585a4.00948,4.00948,0,0,1-.20765.82564c-.01083.03316-.04348.07388.00486.10367.00738.00628.00226.034-.00064.05036q-.0862.42882-.17533.856a.18363.18363,0,0,1-.03113.06144,2.06787,2.06787,0,0,0-.36264.63061q-.10977.61316-.21826,1.22721l.02436-.00986a.79027.79027,0,0,1-.05439.2059c-.00442.01213-.01016.02407-.0141.037-.03979.21369-.07971.42815-.122.64166-.18.88542-.43981,1.66692-.65982,2.5479a.7259.7259,0,0,1-.16589.24044c-.01318.0172-.02167.00916-.02847-.01356-.035.17681-.07013.34534-.1052.51388l-.02462-.00249c.02023-.13333.03579-.266.062-.39884a.44652.44652,0,0,1,.067-.11762,1.88343,1.88343,0,0,1-.00348-.31329,3.54534,3.54534,0,0,1-.24133.73818,1.17313,1.17313,0,0,1-.06225.10552l-.02317-.00663c.00913-.0836.01554-.1674.03141-.25052.056-.28937.12536-.577.17477-.86678.01273-.076.02048-.1523.02747-.22863a3.06365,3.06365,0,0,0-.21314.41631,18.76551,18.76551,0,0,1-.72244,2.43451l-.02381-.00243c.00763-.07466.01081-.1496.02-.22414.0239-.17107.05167-.34173.08808-.5119a12.62707,12.62707,0,0,1,.29361-1.56062l-.01319-.00092c-.00488.01361-.01062.02652-.01382.03951-.02863.13265-.05475.26383-.08313.39562a.35322.35322,0,0,1-.13834.20767c.03891-.246.11545-.486.17258-.72738-.00488-.12253.00043-.29326-.134-.05978a14.57209,14.57209,0,0,0-.638,1.68535c-.07788.33825-.14184.67738-.22705,1.01436-.06085.2419-.14337.48064-.22293.71885a.5918.5918,0,0,1-.1051.16777,1.93071,1.93071,0,0,1,.18631-.60825c-.04028.02031-.06891.034-.11655.058.17536-.42485.06556-.51674-.09768-.58677-.02515.07922-.05072.15836-.074.23684l-.00558.017c-.08255.04052-.08542.1312-.14237.18831l-.03012.00945a.4685.4685,0,0,1,.02161-.09757,3.02931,3.02931,0,0,0,.14447-.38814.49348.49348,0,0,1-.27741-.2168c-.20983.20007-.42968.41023-.46765.3564-.15963.2243-.27987.39266-.27411.38313a.46612.46612,0,0,0,.04459-.16546c.02307-.119.05316-.23739.08423-.355-.14621.16817-.25809.285-.26029.24945-.06872.0613.09723-.151.30634-.404a.14507.14507,0,0,1,.00778-.02509c-.00088.00569.00308.00678.00211.01171.04162-.05078.08532-.10229.12872-.15379.0022-.02135.00372-.04437.00678-.06641l-.02042-.00722c-.03339.05464-.0672.11011-.10025.1632a.87545.87545,0,0,0,.01913-.41667c-.0823.04378-.02377.12385-.07946.17372.00235-.1073.0046-.21365.00723-.3217a.2407.2407,0,0,0-.1453.22356.11374.11374,0,0,0,.02024.04113c.00384.07707.0075.15917.01465.2414a.19182.19182,0,0,1-.07828.18536c.0087-.12.066-.23326.01684-.3565-.01547.07737-.02725.13854-.04165.20027-.0047.01787-.01734.04427-.0304.04828a.05669.05669,0,0,1-.04962-.02159.06057.06057,0,0,1,.00073-.05122c.02167-.05631.04694-.1124.06867-.16869a.27849.27849,0,0,1,.00851-.02909,1.25766,1.25766,0,0,0,.1-.42432c.0206-.13813.0469-.27673.07415-.41533-.00784-.11044-.01907-.29542-.03662-.57257a1.4696,1.4696,0,0,1-.08093.16291c.004-.02623.00772-.05317.01337-.09824-.0546.09536-.05716.19263-.14118.26607.02021-.16051.03705-.30971.057-.45952l-.0217-.00065c-.16321.48918-.25238.987-.37024,1.48346.01654-.13849.02851-.27647.05228-.41436a6.67378,6.67378,0,0,1,.24792-.93434c.01575-.04443.02729-.0882.04029-.13192-.13123.16931-.28058.33977-.33609.25658.01834-.20112.03659-.37748.05365-.53483-.06018.20561-.10425.34132-.09723.25921-.11389.21092-.05939.45924-.17533.68661.0694-.25211.03016-.501.09073-.74707.04447-.18359.10215-.36548.15482-.54848.03482-.12064.24112-.98523.38846-1.67466-.00522-.11529-.011-.233-.01667-.35643-.00494-.07713-.00793-.17153-.01272-.2752-.14166.61968-.42188,1.83838-.43442,1.92262a.2255.2255,0,0,0,.01364.12.09075.09075,0,0,1-.01629.0963c-.06788.10765-.1305.21639-.19355.32515-.05917.28172-.11648.56271-.17523.85027-.0563-.03123-.05252.01283-.05951.04288-.05816.27437-.10675.55108-.17569.8246-.04977.19073-.12588.377-.19034.565a.45028.45028,0,0,1-.02453.03876,12.78074,12.78074,0,0,0,.31045-1.53718c-.0252.07591-.0523.15247-.07095.22886-.06552.26383-.12546.529-.191.79289a1.58,1.58,0,0,1-.1983.49262c-.017.0252-.03726.04943-.06519.08874a1.03588,1.03588,0,0,1,.05081-.388c.04413-.12162.09577-.242.14576-.36647-.12763-.02551-.04371-.15918-.06656-.29707a.54276.54276,0,0,1,.11728-.39912.81162.81162,0,0,0,.1235-.5606c-.0423.07149-.08575.14934-.12991.22638l-.02518-.00918a.82.82,0,0,1,.10236-.27785.283.283,0,0,0,.05648-.19931.33578.33578,0,0,0-.0173-.03919.53473.53473,0,0,0-.0845.12209c-.0195.06311-.02317.129-.03635.19408a.45244.45244,0,0,1-.03689.10816c-.0152-.24723.01007-.34714.11938-.46257-.0759-.00693-.08139-.04946-.06985-.11477.14733-.81909.68542-3.27213.83084-4.09133q.15047-.84333.30166-1.68488c.46677-2.98276.62638-7.17254.81647-10.03665-.43219-.19793-.87958-.39529-.84924-.603.01028-.067.02127-.13315.03286-.20752a.32393.32393,0,0,0-.07214.00565c-.05.01384-.07727-.00213-.07452-.05061.01007-.34714.02105-.695.06335-1.04392a.04908.04908,0,0,0,.00037-.01154,1.03906,1.03906,0,0,0-.22943-.069c.02127-.02654.04239-.05325.062-.07991.05926.00577.11883.00908.17761.01242.034-.41072.01547-.81769.0379-1.22912l.00943-.034c.01783.03018.02979.04912.05036.08362a.35562.35562,0,0,0,.02911-.07392.50345.50345,0,0,1,.15234-.338.5174.5174,0,0,0,.19941-.33469c.085-.00314.16986-.00051.25277-.0104a9.7468,9.7468,0,0,0,2.25-.34166c.02381-.04873.02472-.10567.047-.15533.03824-.09234.08688-.18146.129-.27269a.54736.54736,0,0,0,.04806-.12387c.01294-.06848.02576-.14028-.056-.17823a.15755.15755,0,0,0-.00027-.01737.85057.85057,0,0,1,.17184-.0582.22269.22269,0,0,0,.12982-.057.09576.09576,0,0,1,.05164-.027,6.98611,6.98611,0,0,0,1.22644-.17447c.11581-.02.23068-.03179.34753-.04923a.272.272,0,0,0,.06739-.02585c.04788,0,.09561-.00158.151-.00266l.01355.05051c-.02375-.01571-.03668-.02405-.058-.03627-.00985.02244-.01614.03935-.02792.06744.08545.01674.16559.0347.24582.04776.03152.00551.06155.006.09192.00974.29974-.04348.60217-.08348.90216-.1195l.02133-.00264c.25635-.0308.512-.06085.7684-.08753A.39779.39779,0,0,1,17.463,10.304c.05347.07066.104.13944.15436.20824.29614-.02886.592-.05609.88916-.07992l.05338-.04088a.40361.40361,0,0,0,.02041.03529c1.019-.08157,2.03928-.135,3.059-.17355l.02518-.01476.10611.0099c.09692-.004.1961-.00775.29489-.01161.13135-.004.26135-.00236.39359.00192-.007-.017-.01337-.02984-.0185-.04177a1.11209,1.11209,0,0,1,.52707.074c.38574.03607.7713.09277,1.15228.14749a.88069.88069,0,0,1,.58164.30752c.156.00759.31131.01433.46655.02436a3.70855,3.70855,0,0,1,.65451.02594c-.1369.05567-.27484-.011-.41382.05037.13135.00506.2619.0175.39322.01345a.907.907,0,0,1,.47287.12064c.013.00669.02036.02044.03031.031l-.00687.02017c-.08615.00471-.17319.00937-.26129.0156-.09516.0049-.18866.0116-.283.01574-.07852.0036-.15811.0005-.23538.00667a.55441.55441,0,0,0-.27961.09528c.06421-.003.12818-.00755.19373-.00794.01334.00012.0256.015.04669.02888a5.92438,5.92438,0,0,0,.69516.061,6.4718,6.4718,0,0,1,.85538.04329,1.2495,1.2495,0,0,1,.21075.066,1.18449,1.18449,0,0,1-.3815.09395,2.21254,2.21254,0,0,1-.59774-.04841q-.35762-.06221-.71869-.10644c-.03537-.00412-.08249.04463-.13111.07345a1.015,1.015,0,0,0-.55.045c.0434.00469.08844.01114.1333.01263.04407.00142.09113-.00024.136-.00289.17423-.01094.349-.02848.52258-.032a1.42618,1.42618,0,0,1,.30616.03793.3773.3773,0,0,0-.0889.01526.353.353,0,0,0-.07388.04853l.00695.022c.0763-.00209.15357-.0033.23044-.007a.11982.11982,0,0,1,.14264.09093,2.01326,2.01326,0,0,1-.68262.0101.17732.17732,0,0,1-.05584-.01961.33465.33465,0,0,0-.30057-.0268,2.205,2.205,0,0,0-.42554.17182l.0011.02239c.13684-.00364.273-.00239.41016-.011a.95647.95647,0,0,1,.4064.02842l-.01026.01993-.0086.011c.073.00678.14865.01453.24.02339a.312.312,0,0,1-.2319.07217.8224.8224,0,0,0-.2-.01893c-.15521.0255-.30712.06691-.4606.10163l.00385.025a.64682.64682,0,0,0,.10547-.024c.08657-.03525.10458-.03234.15179.03539-.0303.00947-.06082.01806-.1051.03148.027.02256.03988.03419.06024.05131-.08865.00949-.17874-.07116-.25616.03909.12271.01187.24075.02345.36511.03462-.00205-.03566.00741-.04574.05072-.03115a.71163.71163,0,0,0,.1875.03211c.115.00722.23288.0072.34973.01372.01416.00016.025.01991.03021.03681a1.99426,1.99426,0,0,0-.89776.07187c.022.00238.0451.00481.06738.00638l.07068.00741c-.00034.00659.00033.01242,0,.019-.11359.01767-.22675.042-.3414.05213a2.19174,2.19174,0,0,0-.4888.06248c-.01856.0053-.03461.01162-.06674.0226a1.21483,1.21483,0,0,0,.58374.01934.95136.95136,0,0,1,.49374.00809c.034.01146.06415.03008.09677.04311.014.006.03806.01175.04688.00494a.05254.05254,0,0,0,.02087-.04647.05535.05535,0,0,0-.04413-.02952.47963.47963,0,0,0-.09091.03164c.00577-.0285.00406-.06661.01712-.07314a.25047.25047,0,0,1,.10968-.02373c.01813.00045.036.0273.04871.04554.04086.05656.06247.05807.11132-.00048l.0217-.0274c.06076.15213.1926.17128.34342.14712a1.07177,1.07177,0,0,1,.67923.09376.1709.1709,0,0,0,.18374-.02681c-.02026-.008-.03442-.014-.04989-.02084l.00814-.00769c.02338.00494.05487.00219.07169.01575.04626.0396.04663.04291.12186.02009l-.017-.0458a.06357.06357,0,0,1,.01858-.00532c.30033.01276.60062.02714.90088.03739.117.00407.23694-.00987.352-.0043.16107.00632.32062.02242.47864.03678a.40648.40648,0,0,1,.09531.0331l-.0087.02087c-.11618-.01142-.2327-.02288-.36841-.03567.02029.04023.03165.06583.05054.106a2.3417,2.3417,0,0,0-.86746-.09865,3.85292,3.85292,0,0,0-.85373.22366c.0841.00835.16583.01657.25891.02554l-.03049.04909a2.79359,2.79359,0,0,0,.55673.00176,2.577,2.577,0,0,1,.67832.06147c.016.00361.02713.02587.03332.0519a3.34694,3.34694,0,0,0-1.38794.11444c.032.0262.05561.04436.07379.05969-.05819.0174-.1213.03695-.18228.05581l.00183.01748.10144.00875a.07229.07229,0,0,0,.00129.01578c-.07822.02262-.15635.04609-.23493.0695a.10194.10194,0,0,0,.13559.07474c.0141-.004.02478-.02141.04477-.03983.034-.01167.08249-.02644.12781-.04558.06561-.026.09326-.01825.12762.03948-.05584.05062-.15173-.00813-.19748.0845.04679-.005.09043-.00937.14923-.016-.02859.02858-.04788.04788-.06427.0649-.04534-.0164-.08593-.03159-.12661-.0452a.462.462,0,0,0-.20563.0038,3.65634,3.65634,0,0,1-.50052.0344,3.0372,3.0372,0,0,0-.66357.03451,1.31309,1.31309,0,0,0-.16974.051,6.13207,6.13207,0,0,1,.80227.08415l-.0455.03894c.04984.01592.09311.03052.13825.04523l-.00431.02948c-.05191.00958-.10165.02181-.15307.028a.25438.25438,0,0,0-.14786.03188.83164.83164,0,0,0-.5972.13992c-.012-.01155-.02319-.02475-.03543-.03554-.03006-.02851-.05588-.03282-.09183.00852a.44767.44767,0,0,1-.0932.067.52849.52849,0,0,0,.26981.01635.90589.90589,0,0,1,.20563.01024c.01983.00224.03491.0281.05777.04616-.01838.00866-.02417.014-.02829.01373a.94085.94085,0,0,0-.41794.04509c-.10571.02565-.21283.04873-.32108.08337.10858-.00482.21881-.01283.327-.01357a1.42729,1.42729,0,0,1,.17468.02379l-.004.02285a.21808.21808,0,0,1-.03772.00488c-.03479-.00166-.06952-.00485-.10373-.009a1.147,1.147,0,0,0-.33792.00943,2.58313,2.58313,0,0,1-.40851.01529,2.66935,2.66935,0,0,0-.30249.00853.851.851,0,0,0-.18447.07712.21366.21366,0,0,1-.06153.01642.50107.50107,0,0,0-.237.04868c.11832.01155.23966.02252.36008.03511a.25159.25159,0,0,0,.20755-.04255.06055.06055,0,0,1,.03982-.00791c.02463.0075.05649.013.069.03046.05758.0767.1354.06151.22522.05045a3.25532,3.25532,0,0,1,.37133-.01375c.01694-.00046.02982.02031.04688.02806a.09764.09764,0,0,0,.0444.018,2.97571,2.97571,0,0,1,.30469-.01012,3.28749,3.28749,0,0,1,.43771.06858,4.66267,4.66267,0,0,0-.82882.07014c.16711-.004.33447-.01051.50134-.01121a.4652.4652,0,0,1,.38287.15564c-.14615.06408-.25607-.03613-.39047-.02894-.01273.07016-.06192.094-.13046.08918-.12305-.0086-.24549-.01224-.36686-.02565a.48855.48855,0,0,0-.26953.04313c.04178.0194.0792.0385.12635.06088a.16117.16117,0,0,1-.17-.0037c-.06082-.03895-.08194-.03376-.13641.02854.04941.08441.16513.0074.23062.05323l-.00531.02035c-.05575-.00564-.11252-.00786-.16672-.01744a.093.093,0,0,0-.11792.05122.18477.18477,0,0,1-.02646.03121,2.109,2.109,0,0,0-.80365-.14631c-.2402-.00274-.48275.00432-.72518.01868-1.14551.06784-2.29041.23559-3.43644.34378-.41269.03814-.82394.07124-1.2355.09451-.295.01659-.775.02513-1.06741.0097l-.0401-.0004a.92029.92029,0,0,0-.01383.14776,36.06161,36.06161,0,0,1-.8324,4.49383l-.02325.11654c.07748-.01194.15457-.02311.23117-.03511l.00229.01095-.08249.04956.00211.00671c.08715-.01868.17309-.04574.25918-.05533a1.477,1.477,0,0,0,.366-.08678.89665.89665,0,0,1,.24664-.0373.33.33,0,0,0,.24372-.10932l-.00248-.01916c-.057.00923-.11407.02094-.17038.02683a.68684.68684,0,0,1-.15811.00966c-.0245-.00259-.04379-.032-.062-.05561a.88454.88454,0,0,0-.42718.05938.25667.25667,0,0,1,.16919-.10469.65346.65346,0,0,1,.29754.025.89937.89937,0,0,0,.272-.00074,1.09394,1.09394,0,0,0,.19876-.04065,1.49548,1.49548,0,0,1,.74606-.03207l.03287.00307c.00769-.03.01495-.05677.02243-.08354a2.95708,2.95708,0,0,0,.30981-.00638.15246.15246,0,0,1,.14447.06215.57089.57089,0,0,0,.54666.21749c.11069-.00548.22025-.02345.33-.03561a.0754.0754,0,0,0-.00082-.014l-.10776-.0431.00476-.02194c.06171-.00725.12354-.01624.18512-.02012a1.1791,1.1791,0,0,1,.52451.11678,1.32035,1.32035,0,0,0,.54565.07786,1.52913,1.52913,0,0,1,.18036.01589c-.095.07268-.19226.00061-.28088.0646a.46114.46114,0,0,0,.29534.03723.26417.26417,0,0,1,.267.07891c.02963.02607.0076.046-.02527.05278-.12683.025-.25421.04671-.38122.07329a1.8748,1.8748,0,0,0-.22367.06282.10412.10412,0,0,0-.038.0304c.09836.0011.19656.00138.2948.0025.04.00114.03061.01205-.01392.03121.326.01538.64618.06669.97715.09724-.02048.01263-.03812.02627-.06015.03715a.6819.6819,0,0,1-.5008.04093c-.17032-.03994-.343-.07026-.52395-.106.00192.03155.00344.0465.00558.06727-.01849-.00946-.03332-.01881-.051-.02833l-.03653.05036a.13315.13315,0,0,0-.09687-.053c-.07409.02625-.15942.055-.24728.08757a.801.801,0,0,0,.35376.005.69788.69788,0,0,1,.3663,0c-.056.01506-.12112.013-.13888.09438.0549-.00282.10611-.00414.15976-.00945.07141-.00743.09625.00585.12075.08275-.09961.00962-.19586.02023-.29379.029-.14932.01356-.30209.01937-.4519.04358a1.82286,1.82286,0,0,0-.27951.08957l.00247.03323c.08526-.00483.16943-.0113.25351-.01456.09271-.00335.18377-.00448.27493-.003.02915.0004.045.01557.05118.0507.00412.02835.04819.04792.07526.07052.04006.03336.08.06671.12542.10294-.03656.01229-.064.02116-.10574.03472.0412.02111.069.03537.09585.04882l-.0064.01691a.39881.39881,0,0,0-.25864-.00817.136.136,0,0,1-.14941-.07155c.04925.00509.09869.00931.15536.015a.27333.27333,0,0,0-.37747-.02726c.028.00282.05386.01281.06537.00457.02908-.02274.04947-.02459.07425-.00387.04779.03641.05243.04414.038.101l-.0704.00086c.01764-.01534.03222-.02589.04568-.03565l-.00906-.01471-.17954.10562c.0744.01427.1366.02689.19968.03873-.03244.01418-.066.02759-.09952.04258-.02212.01166-.04281.02429-.07132.03886.02292.02636.04117.04993.06253.07618a.429.429,0,0,1-.27273.052.43451.43451,0,0,0-.28134.06708.43825.43825,0,0,0,.37481.05512.4374.4374,0,0,1,.41016.02212L20.634,21.843l-.04156-.01033-.00476-.01527c.03125-.01519.0708-.04622.08954-.03827.02826.011.04126.04992.06463.083.01624-.01706.0362-.03881.05878-.062a.925.925,0,0,0,.04541.10148.13772.13772,0,0,0,.18191.059c.04-.01369.07889-.02993.121-.04031a.26368.26368,0,0,1,.19638.01951.92771.92771,0,0,0,.15783.06723.42975.42975,0,0,0,.09842.011l.00788-.01594c-.0235-.01822-.04523-.03709-.08258-.067.03189.004.055.00143.06344.01021.05689.052.0647.05.09961-.02435a3.05788,3.05788,0,0,0,.68033-.05238,1.04794,1.04794,0,0,1,.52414.02914c-.03458.00588-.05875.01081-.08277.01406a.6431.6431,0,0,0-.08093.00841.263.263,0,0,0-.05264.02775c-.20508.01534-.40765.02931-.61029.04483a.17432.17432,0,0,0-.0542.01356c-.1012.04332-.20288.08738-.30231.1325-.06027.02807-.119.05864-.17953.08749l.004.01512.16937.01676c-.03992.0642-.05652.07047-.10529.03649-.04373-.0312-.06411.00294-.08871.0285l-.00119.02054c.09909-.003.19894.00071.29727-.01063.14331-.01561.28381-.04538.42792-.06424a.7158.7158,0,0,1,.32281.0242c.00971.03867-.00952.0588-.047.0612-.09229.00675-.18671.00264-.27787.01527a2.47811,2.47811,0,0,0-.62906.17326c.02829.0251.04966.04483.07224.06451l-.15106.0679c.03695.00923.05832.014.07864.0188a.05331.05331,0,0,0,.002.01247.59417.59417,0,0,0-.0889.02434c-.02194.01-.05081.027-.05457.04332-.00848.03738.03961.08865.068.07829.013-.00408.0213-.02909.03021-.04337a.39458.39458,0,0,0,.094-.03883c.06-.04043.06772-.04153.09137.01709-.05407.03092-.10864.061-.16095.0912l-.00567.00375c-.1254-.02363-.24.06912-.36438.06377a3.67957,3.67957,0,0,0-.39157.01059.61645.61645,0,0,0-.32547.10774c.19094.0381.3956-.02767.577.06686-.0199.00439-.04083.0087-.06024.0139l.00595.01864c.06555.007.09711.03734.08221.10155-.09787.00886-.1932.01791-.2893.02767a.46907.46907,0,0,0-.30268.16312c-.01348-.01338-.024-.02406-.0357-.03478-.03265-.032-.06238-.03406-.09366.01417a.40655.40655,0,0,1-.06015.06018.2479.2479,0,0,0,.17221.01531.64859.64859,0,0,1,.1691-.00137c.02051.0023.03674.02982.04944.05135a2.26652,2.26652,0,0,0-.57971.14539c.12689.01215.2655-.05912.37756.0264l-.00348.01961c-.05084-.0052-.10132-.00873-.15216-.01478a.31345.31345,0,0,0-.1691.01959.57317.57317,0,0,1-.32272.00384.30768.30768,0,0,0-.236.03391c-.01545.01127-.022.03479-.03956.06248a.30361.30361,0,0,0-.21551.05433c.08069.00726.15826.01358.23675.02311a.14388.14388,0,0,0,.13331-.03444.04539.04539,0,0,1,.07333-.00316.075.075,0,0,1,.02609.02255c.03919.07627.11316.069.1897.06193.08328-.00738.16806-.00963.25937-.01482a.4928.4928,0,0,1-.02152.04553,1.1102,1.1102,0,0,1,.6005.06184c-.22608.06188-.44428-.03685-.66028.072.10834-.00737.21606-.01555.32428-.022a.39159.39159,0,0,1,.31686.099m-5.4776.9404a.48252.48252,0,0,0,.03928-.098c.009-.03658-.00864.01013-.03928.098" style="fill: #ff5000;fill-rule: evenodd"/>
    <path d="M60.52164,10.68965c-.06406.04591-.04972.10967-.06.16765.02106-.05561.04022-.11123.06-.16765" style="fill: #ff5000"/>
    <path d="M60.73969,11.53021a.2186.2186,0,0,0-.07251.19974c.02645-.0716.04934-.1361.07251-.19974" style="fill: #ff5000"/>
    <path d="M57.26346,11.17388l-.02579-.00585c-.03033.09117-.05926.18169-.09048.27289l.02816.00612c.0289-.09138.05826-.1827.08811-.27316" style="fill: #ff5000"/>
    <path d="M61.1972,10.50884c-.0115.07361-.02969.14751-.046.22483a.50988.50988,0,0,0,.13431-.26983c-.055-.01957-.07986-.00721-.08832.045" style="fill: #ff5000"/>
    <path d="M61.08725,11.07781a1.03679,1.03679,0,0,0-.15338.50309c.04974-.16586.1004-.33245.15338-.50309" style="fill: #ff5000"/>
    <path d="M60.21173,11.59161a.65439.65439,0,0,0,.05408-.17135.87266.87266,0,0,1,.07684-.31356.76487.76487,0,0,0,.04065-.18548l-.01565-.00611c-.00962.02244-.02128.044-.02942.06656a1.87434,1.87434,0,0,1-.07709.235.40947.40947,0,0,0-.06442.29534c-.01093-.014-.02069-.02864-.03278-.04605-.01416.009-.03064.01847-.06375.03853.08047-.00016.10287.03283.11154.08713" style="fill: #ff5000"/>
    <g>
      <path d="M57.91922,32.36931a.44625.44625,0,0,0-.1983.00651c.10022.02547.05194.05584.05294.08461a.212.212,0,0,1-.06308-.01c.046.02914.00773.07423-.03271.09954-.14993-.02393-.10239-.08291-.15536-.16764-.5904.13452-.1399.23494-.62763.45243a523.23962,523.23962,0,0,0-.5856.24952,2.05848,2.05848,0,0,1,.54159-.10415c.19159-.179.4892-.18876.73014-.36939.00342.08627-.09363.147-.19049.20778.19626-.06405.24008-.20942.435-.30212a.16888.16888,0,0,0,.10132.05422C57.97449,32.51142,57.872,32.42842,57.91922,32.36931Z" style="fill: #ff5000"/>
      <path d="M51.92914,31.48832c-.04926-.06017-.08161-.162-.13095-.22241-.01721.04147.06006.09434.04287.13577a1.3517,1.3517,0,0,1-.44265-.7282c-.03223-.10184-.07489-.23747-.09641-.30532a1.7358,1.7358,0,0,1,.04477.42954c.18045.283.17166.54307.324.83336a.59508.59508,0,0,1-.18036-.28275c.02542.17714.19125.3167.25549.52038.01083.03394-.05594.015-.04523.0489.0495.06048.16138.03054.2107.09088.028-.00747.00638-.07543.02371-.1168-.04526.04891-.05594.01495-.09467-.01143-.01052-.034-.01089-.034.0066-.07544-.01728.04151-.06659-.01892-.11619-.07935.06263-.09034.12256.00391.20664-.0185C51.95465,31.66548,51.84521,31.51081,51.92914,31.48832Z" style="fill: #ff5000"/>
      <path d="M52.38205,32.3283a2.4972,2.4972,0,0,1,.17194.45705l.01821.02234a2.14545,2.14545,0,0,0-.32482-.79684A.9938.9938,0,0,1,52.38205,32.3283Z" style="fill: #ff5000"/>
      <path d="M59.36755,26.41609a3.0685,3.0685,0,0,1,.0633-.64067c-.08521.33849-.07666.7097-.15637,1.1238-.01343.069-.03748-.01322-.05091.05576-.00781.14465.0672.17117.05942.31586.0188.00657.04553-.13146.07745-.19385-.05075.05575-.03775-.01325-.04309-.08889a.32918.32918,0,0,1,.04541-.13146c-.032.06243-.02411-.08221-.01642-.2269.0828-.11817.062.09551.1182.11542.0321-.06242.06067-.42078.11737-.4009.00766-.14427.04776-.35127.05548-.496-.032.06243-.02112.21369-.05328.27611a7.03065,7.03065,0,0,1,.17443-1.6339c.03989-.207.093-.48269.11966-.62071-.08477.3381-.12512.54515-.21579.808C59.59912,25.31872,59.44958,25.78208,59.36755,26.41609Z" style="fill: #ff5000"/>
      <path d="M48.40839,23.03605a.54918.54918,0,0,1-.01294.06353c-.01844.06594-.03955.13108-.058.197a.29836.29836,0,0,0-.018.10179c-.0029-.00734-.004-.01548-.00788-.02364-.00765.0497-.01852.09935-.02124.14985a.332.332,0,0,1-.0448.05863.0818.0818,0,0,0-.02542.04642c-.00235.11155-.0007.22308-.00229.33546a.17551.17551,0,0,0,.06675.16367,1.2455,1.2455,0,0,1,.08276-.44458.79732.79732,0,0,0,.02188-.105c.00525-.03421-.012-.04886-.04156-.03747.02508-.16694.04968-.33627.07534-.50566Z" style="fill: #ff5000"/>
      <path d="M48.52356,22.96238c.03653.17475.07419.34921.11078.52272l.02618-.00713c-.00744-.08091-.01471-.16061-.02243-.24778.02854.00636.04691.0111.06525.01461l.024-.0181c-.0542-.09455-.11-.18752-.16425-.28209C48.54959,22.95149,48.53708,22.95679,48.52356,22.96238Z" style="fill: #ff5000"/>
      <path d="M44.70645,12.56574l-.00256.01121.04236.00539A.15875.15875,0,0,0,44.70645,12.56574Z" style="fill: #ff5000"/>
      <path d="M45.9816,32.9379c-.00028.01107.01022-.01677,0,0Z" style="fill: #ff5000"/>
      <path d="M41.26819,34.07836c-.007.02249.01858.05209.02939.07894.023-.01507.05746-.023.06921-.04527a.13869.13869,0,0,0-.021-.18521A1.08858,1.08858,0,0,0,41.26819,34.07836Z" style="fill: #ff5000"/>
      <path d="M45.55411,33.42544c-.00608.01982.01663.04605.02594.06975.02029-.01331.05093-.02039.06115-.04a.12229.12229,0,0,0-.01858-.16363A.98256.98256,0,0,0,45.55411,33.42544Z" style="fill: #ff5000"/>
      <path d="M46.19244,32.71673c-.00283.00912.0076.02126.01191.03216.00909-.00612.02362-.00943.02819-.01844A.05618.05618,0,0,0,46.224,32.655.45251.45251,0,0,0,46.19244,32.71673Z" style="fill: #ff5000"/>
      <path d="M61.83264,10.57821c-.02777.0393-.04816.06352-.06518.08874a1.57941,1.57941,0,0,0-.1984.49262c-.06564.26384-.12546.529-.19089.79288-.01852.07638-.04556.15293-.07095.22887a12.90261,12.90261,0,0,1,.31033-1.53719c-.01062.01824-.01989.02752-.02447.03877-.06458.188-.1405.37427-.19031.565-.06885.27354-.11755.55022-.17566.82461-.00708.03006-.00336.07409-.05957.04287-.0589.28754-.1156.56857-.17523.85027-.06284.10876-.1257.21751-.19354.32516a.09126.09126,0,0,0-.01633.09629.22645.22645,0,0,1,.01367.12c-.0126.084-.29135,1.297-.43332,1.918l-.00122.00077c-.005-.10208-.00815-.19523-.0126-.27136-.00537-.12346-.01105-.24117-.01666-.35643.14727-.68943.35363-1.554.38845-1.67466.05256-.183.11048-.3649.15482-.54848.06073-.24606.02136-.495.0907-.74708-.116.22735-.0614.47568-.17529.68662.00723-.0821-.037.05358-.09726.2592.01724-.15734.03537-.33371.05365-.53482-.05539-.08321-.2045.08727-.33606.25658.01287-.04373.02478-.08752.04028-.13193a6.674,6.674,0,0,0,.248-.93434c.02369-.13789.03583-.27584.05219-.41436-.118.49651-.20667.99428-.37024,1.48346l-.02161-.00065c.02015-.14981.03644-.299.057-.45952-.084.07343-.08652.17073-.14117.26607.00531-.04509.00952-.072.01336-.09824a1.47652,1.47652,0,0,0-.081.16291c-.01746-.27716-.02869-.46214-.03659-.57256.02728-.13861.05383-.27721.07416-.41533a1.25462,1.25462,0,0,1,.1-.42432c.00507-.00872.00421-.01945.00852-.02909.02172-.0563.04693-.11239.06866-.1687a.05944.05944,0,0,0,.00073-.05121.05715.05715,0,0,0-.04965-.0216c-.01346.004-.02536.03042-.03036.04829-.01413.06173-.02616.12289-.0416.20027-.04895-.12325.00793-.23655.01678-.35651a.19157.19157,0,0,0-.07827.18536c.00708.08223.01086.16432.01461.2414a.11717.11717,0,0,1,.02027.04113.2408.2408,0,0,1-.1453.22357c.00257-.10805.00483-.2144.00724-.3217-.05579.04988.00268.12992-.0795.17371a.87776.87776,0,0,1,.01919-.41667c-.03283.05313-.06695.10857-.10022.1632l-.02047-.00721c.0032-.022.00448-.04508.0068-.06641.04322-.05151.087-.103.1287-.15379-.00092.00495.00329.006.00207.01171a.14761.14761,0,0,0,.00781-.02509c.20914-.253.37491-.46533.30634-.404-.002-.03561-.114.08128-.26032.24945.03107-.11763.06128-.23609.08432-.35506a.46482.46482,0,0,1,.04453-.16546c.006-.00952-.11447.15883-.27411.38313-.03809-.05384-.258.15631-.46759.3564a.49436.49436,0,0,0-.2775-.21679,3.05741,3.05741,0,0,1,.14456-.38815.476.476,0,0,0,.02161-.09757l-.03021.00946c-.057.05712-.05982.14781-.14233.18831l-.00553.017c-.02319.07846-.04907.15762-.074.23683-.16318-.07-.273-.16194-.09772-.58676-.04776.02395-.076.03766-.11652.058a1.92613,1.92613,0,0,0,.18637-.60824.58214.58214,0,0,0-.10519.16777c-.07941.2382-.162.47692-.22293.71885-.08524.337-.14908.67611-.227,1.01435a14.53875,14.53875,0,0,1-.638,1.68536c-.13453.23347-.129.06277-.134-.05979.05738-.24139.13373-.48143.17255-.72737a.35346.35346,0,0,0-.13834.20766c-.0285.13178-.05462.263-.08313.39563a.40256.40256,0,0,1-.01379.03951l-.01321-.00092a12.60835,12.60835,0,0,0,.29367-1.56062c.036-.17019.06433-.34085.08807-.5119.00922-.07455.01233-.14949.0199-.22414l-.02378-.00244a18.76581,18.76581,0,0,0-.72238,2.43452,3.06825,3.06825,0,0,1-.21322.41631c.00717-.07634.01461-.1526.02746-.22864.04938-.28975.119-.57738.17487-.86678.01565-.08313.02243-.16692.03134-.25052l-.02316-.00663a1.19693,1.19693,0,0,0-.06226.10552,3.55349,3.55349,0,0,0-.24133.73819,1.89021,1.89021,0,0,0-.00348-.3133.43831.43831,0,0,0,.067-.11762c.02624-.13283.04156-.26552.06192-.39883l-.0246-.0025c-.035.16853-.0701.337-.10516.51388-.00687-.02274-.01536-.03075-.02848-.01355a.71873.71873,0,0,0-.16589.24044c-.22.881-.321,1.66247-.5011,2.54789-.04221.21352-.08237.428-.122.64167-.00391.01293-.00958.02487-.01416.037a.78694.78694,0,0,0-.05429.20589q-.15606,1.17894-.312,2.35789l-.00458.02046c-.10523.6307-.19312,1.06435-.28635,1.53467-.0549.277-.23068.87907-.25555,1.02a1.56024,1.56024,0,0,1-.04062.33616,2.08389,2.08389,0,0,0-.03818.32981l-.03186.36809-.07828-.08834q-.027.12765-.06289.33136a4.34808,4.34808,0,0,1-.21948.65822c.00521.07966.016.267.0227.42962l.008.19172L54.71024,23.59a.04651.04651,0,0,0-.02555.00248l-.1485.06013-.07034-.17839a.565.565,0,0,1-.107-.31663l-.0022-.022.00384-.0217a1.42876,1.42876,0,0,0-.00732-.21093l-.03644-.09237a4.35037,4.35037,0,0,1-.18945-.53393A.19592.19592,0,0,0,54.06781,22.2a.55882.55882,0,0,1-.18475-.30547l-.007-.03084c-.05869-.46961-1.09439-3.279-1.65073-4.78843l-.222-.60662c-.02454-.10647-.046-.22953-.06534-.34267-.01727-.10058-.04071-.23574-.05612-.28223L51.84317,15.8l.01334-.07548L51.85605,15.71a.36629.36629,0,0,1,.05066-.20784,1.60023,1.60023,0,0,1-.23822-.8349l.05465-.3078a2.98932,2.98932,0,0,0-.2496-.40715,3.16883,3.16883,0,0,1-.33819-.58538l-.04642-.10492.03354-.03038-.00324-.00558c-.03726-.06123-.075-.11748-.11206-.17188a1.88673,1.88673,0,0,1-.21109-.36949.63465.63465,0,0,1-.106-.10089.25269.25269,0,0,0-.06509-.06045l-.10959-.05176q.073-.41118.14584-.82235l.13038.14739a3.34716,3.34716,0,0,0,.01144-.37445c.00006-.0234-.00037-.04681-.00028-.06974a.29111.29111,0,0,1-.22521-.09842l-.03748-.04246-.04236.00294-.04956-.04339c-.13577-.11841-.2413-.20815-.326-.2782l-.00751.02138c-.04022.09858-.13989.14243-.29641.13066l-.04175-.0031-.03473-.02341a.93359.93359,0,0,0-.13532-.08074l-.05145.29013-.1015-.30207a.39457.39457,0,0,0-.07379.03069l-.16473.08586-.04914-.1463-.00186-.00031c-.01376-.00311-.02969-.00682-.04733-.01194a.42545.42545,0,0,1-.26248.11562.26375.26375,0,0,0-.06333.01333.05531.05531,0,0,0-.00961.01689l-.06409.15235-.14953-.0702a.20682.20682,0,0,1-.1182-.13655c-.02661.00108-.05145.00016-.0726-.00077a.3476.3476,0,0,0-.14584.01333l-.10245.03874-.03961-.04463-.00843.01333q-.13965.21318-.27945.42636l-.012-.50959-.00009-.00325-.0062-.00124a.34516.34516,0,0,1-.244-.15251.75421.75421,0,0,1-.46445-.03782c-.02368-.00822-.04688-.01627-.07053-.02294-.10925-.02-.22876-.01116-.5524.3264l-.04241.04433-.0636.00434a.88613.88613,0,0,1-.14255.17637.7517.7517,0,0,1-.29727.26487.86446.86446,0,0,1-.50958.13329,1.22865,1.22865,0,0,1-.22287.46325c-.01319.018-.02564.03472-.0366.05146l-.02609.03053a.83619.83619,0,0,0-.27328.52075.219.219,0,0,1-.05567.11965,11.0193,11.0193,0,0,1-.25094,1.33938c-.07956.34191-.161.69387-.22119,1.09265l.11627-.0079-.03543.19993c-.019.10662-.04938.29168-.09073.53873-.17151,1.03267-.52631,3.16806-.94885,5.17806a.27324.27324,0,0,1,.02032.06447,1.33787,1.33787,0,0,1-.10413.58445c-.00839.10834-.04745.33307-.14352.85645a5.15484,5.15484,0,0,1-.20288.92232c-.10919.70968-.17316,1.08319-.23547,1.44447-.06653.38653-.12946.75182-.2428,1.49561l.00659.0375a.29582.29582,0,0,1-.02042.14817.2558.2558,0,0,1-.021.04339l-.0369.24256a.31343.31343,0,0,1-.00787.08152l-.0044.01891a.38921.38921,0,0,1-.06051.37832l-.03663.241.00788.03131a.28793.28793,0,0,1,.04931.15049l.00156.04634a.3309.3309,0,0,1-.09317.234l-.04275.046-.013.086a.30117.30117,0,0,1-.0077.108.20471.20471,0,0,1-.016.04339c-.04883.26424-.434,2.21414-.61245,3.00176.00006,0-.143.419-.0694.30709.035.10453-.12158.3828-.12491.7041a1.07036,1.07036,0,0,0,.12149-.3829c.07675.47611-.0076-.15567-.06845.49061-.0737.1119-.01907.10823.03516.10454-.0904.5108-.22455,1.03522-.278,1.33729.34821-.45155.3172-.75591.50583-1.51762-.05127.59181-.10358.38591-.16443,1.0319.22385-.657.21207-.39337.24442-.87707.11844-.06159.035.10462.02548.15879a13.58656,13.58656,0,0,0,.29809-1.40921c.03852-.05876.0174.18894.00034.41428a1.934,1.934,0,0,0,.089-.46248c.08.15507-.10934.64752-.10312.91465a.33075.33075,0,0,0,.03583-.072c.09631.24215-.14526.85676-.22394,1.3245l.00769-.09229a.53757.53757,0,0,0-.01565.14437,1.259,1.259,0,0,0-.01511.22767l.01849-.22357a.91785.91785,0,0,0,.09034-.2878c-.00715.06371-.0033.09849.0415-.03364-.06723.37919.06271.05345.0498.42893-.00958.05424-.1792.7078-.0672.37917.13758-.2751.04651.04752.07972-.04991-.00159.01881-.003.03751-.00409.05836-.0192.10834-.08823.66993-.00486.50378.06363-.441.04648-.30836.16333-.87963a.17483.17483,0,0,0-.02572-.026c.01068-.03588.02057-.07147.02835-.10392l.01193.05858c.0141-.06979.13727-.55925.15528-.6497a8.07285,8.07285,0,0,1-.04725,1.29762c.04468.05044.169-1.49351.16559-1.17223.12177-.3829.09351.40839.20893-.24155.10189.63513-.16123.75694-.12909,1.18254a2.08829,2.08829,0,0,1-.15042.54532c.02551.1588.08319-.16616.10238-.27456.07.20931.02542.15887.03183.4259.12787-.11568.02246-.42956.12491-.7041-.18564.44069-.08951-.10058.02875-.16211.04449.05041.01611.21254-.02246.42923.10833-.00736.09271-.22038.10235-.27448.05066.31756-.04876-.40877-.0072-.22822.07367-.115.07227.28365.091.44133-.01675.08494-.03689.12854-.06848.29075-.0553.28449.0351.1047.05432-.00364a3.02964,3.02964,0,0,0,.29215-.91108c.09595-.54167.01294.49533.11874-.1002.09921.04647-.15829.8101-.12286.91472.04764-.07239.13.007.18838-.043.00327.04183.00724.08.01313.1133-.09348.78475.17086.20831.22192-.12849.01526-.051.0307-.10947.047-.177.04129.09989.09573.17638.13467.08354.18274-.46362-.06274-.348.1684-.5695a1.404,1.404,0,0,0,.02069.23434,2.17764,2.17764,0,0,1,.025-.27665l.00781-.00728L43.9657,33.677c.02524-.19552.05362-.40155.0191-.37033-.10867.00735.10239-.27449-.03512-.10462.34228-.71858.13556-.50687.4075-1.4347.02218.47975-.32834,1.20022-.32541,1.78861.05426-.00374.03833-.21664.05762-.325.02328.113.04086.15279.05291.16227a1.7633,1.7633,0,0,0-.04779.21628c.08329-.16623-.05026.48036.09705.25634.01907-.10834-.04477-.05052-.02554-.15886.02874-.16219.07678-.43295.11526-.64962.08945.10089-.01291.37539-.06088.6459.163-.01109.17792-.10826.261-.27417l-.157.00024a2.50164,2.50164,0,0,0-.00677.32314c-.20825.27751-.08924.00959-.21057.39126.10879-.00742.13754-.16993.16644-.33244.05432-.00374-.03864.21668-.05768.325.20615-.3494.11636-.08384.21-.454.00037.01753.00342.05247.01059.118-.0289.16242.10233-.27457.14084-.49115.05426-.00372.04474.05046.03513.10461.17556-.38652.06509-.16927.23449-.82289.051.31765.02765-.05079-.05887.43636-.10571.59582-.13989,1.28915-.063.85583-.05136.59221.04922-.23736-.00214.35437.13751-.16985.01672-.02975.13843-.41249.04477.05046.00638.26712-.02249.42954a7.174,7.174,0,0,0,.28363-1.18773c.11184.05656-.10941.26121.11624.14383-.115.41692-.16684.50106-.18768.5.00527.05184.00967.15966.00759.36925.01569.213.176-.38645.176-.38645.02322-.10206.04336-.19157.06229-.27472a.346.346,0,0,0,.02014-.08865l.03073-.13522c-.01013.04394-.0199.08524-.02854.121.04169-.27849.22852-1.28353.23566-1.47584a4.75318,4.75318,0,0,1-.04517.56414,2.59442,2.59442,0,0,1-.03118.81755c.05423-.00364.334-.05327.29559.16336.14767-.33355.19467-.4259.20749-.447v-.0007a.86909.86909,0,0,1,.05264-.25139l.048-.11515a1.95669,1.95669,0,0,0,.16443-.57112c.03687-.19047.09388-.48449.19947-.98029a1.38375,1.38375,0,0,0,.05111-.21914,6.4874,6.4874,0,0,1,.19464-.8191,5.04282,5.04282,0,0,1,.1431-.83444l.02-.087-.04071.03673.07031-.44372c.18308-1.1568.99619-4.56681,1.21958-5.52849a.64588.64588,0,0,1,.05154-.12848.70044.70044,0,0,0,.08222-.241l-.03071-.5454q.15916.222.31818.444a9.84077,9.84077,0,0,1,.56091.87349c.24475.42312,1.10157,2.37655,1.87156,4.26536,1.26519,3.1042,1.2323,3.92143,1.199,4.11424a.186.186,0,0,1,.1286-.10523.17907.17907,0,0,1,.17325.06029l.0509.05734-.01336.07563a.09991.09991,0,0,0-.001.04619.07615.07615,0,0,0,.02835.00449l.19495-.00573-.02848.19187a.05913.05913,0,0,0,.00751.02.32261.32261,0,0,1,.03439.21434l-.02935.16521.00363.00589.13131.04448.00843.00295.02334.00806-.00012.00031a.42937.42937,0,0,1,.08014.03859,1.3121,1.3121,0,0,1,.17084.12957c.04645.04108.09125.08382.13431.12771a.19818.19818,0,0,0,.02792.0203.3223.3223,0,0,1,.12735.13592.61339.61339,0,0,1,.13519.13623,1.39007,1.39007,0,0,1,.383.06541,2.13111,2.13111,0,0,0,.24612.05843.2085.2085,0,0,1,.03781-.01147c.0456-.00977.08362-.01829.11692-.026a1.92366,1.92366,0,0,1,.27191-.04727.31319.31319,0,0,1,.05795-.04773.37445.37445,0,0,1,.25745-.04526l.05224.00744.03748.03719a.06206.06206,0,0,0,.02536.01659l.20578-.00078.00278.00078.19775-.00124c.09833-.00216.19684-.00528.295-.01023l.08164-.18134.08874.17173.00208-.00016c.04355-.00325.08682-.00667.12985-.01069l.06372-.03022.06692-.08276-.193-.02372.12314-.09066-.07455-.09532.22659-.069.0444-.01054.34473-.08539-.00214-.00605-.11966.00078.45642-.193.02265-.06029-.10214-.08323.133-.07392-.0433-.02821.14242-.02681.16986-.23171-.22055-.18536.29407.08493.26138-.35646-.11923.39753.18231.05285a.61222.61222,0,0,0,.28986-.14041.25587.25587,0,0,0,.0737-.1305l.00806-.03441.02194-.02774a.09244.09244,0,0,0,.01175-.08447l-.07376-.14956.18249-.07951.03913-.01736c.02243-.03207.04629-.0637.07022-.09345a.61336.61336,0,0,1,.10235-.1c.00461-.01688.00876-.03379.014-.051l-.01114-.00449.04141-.09315c-.00982-.01707-.01794-.03193-.02472-.0451l-.01538-.02759-.05084-.05734.0556-.31385a12.97581,12.97581,0,0,1,.36536-1.9525,2.94982,2.94982,0,0,1,.37884-.97207c.00364-.02668.007-.05269.00989-.07811l-.13458.00914L59.0325,27.461a17.465,17.465,0,0,1,.52353-3.49462c.13217-.6796.28665-1.47406.46045-2.40274.0217-.11655.1395-.64722.2641-1.20919.11563-.52091.23489-1.05948.25558-1.16906a1.14919,1.14919,0,0,0-.02511-.34623,1.35149,1.35149,0,0,1-.02375-.456c.08487-.44663.16452-.86254.24054-1.25542l.02488.0053c.14544-.8192.68377-3.27226.83084-4.09135.01156-.0653.00583-.10782-.06986-.11476.10926-.11544.13471-.21535.11936-.46257a.4707.4707,0,0,0-.03687.10816c-.01367.0651-.01654.131-.03631.19408a.53345.53345,0,0,1-.08454.12209.36011.36011,0,0,1-.01724-.03919.28334.28334,0,0,1,.05649-.19931.824.824,0,0,0,.10229-.27785l-.02511-.00918c-.04395.077-.088.15491-.12992.22638a.81143.81143,0,0,1,.12348-.5606.544.544,0,0,0,.11725-.39912c-.02311-.1379.06106-.27157-.06656-.29707.04986-.12452.10156-.24485.14572-.36648A1.03384,1.03384,0,0,0,61.83264,10.57821ZM43.57394,34.25758a.08041.08041,0,0,0-.02288-.05153.53334.53334,0,0,1,.024-.1054,1.04928,1.04928,0,0,0,.03785.11152A.2855.2855,0,0,0,43.57394,34.25758Zm.85547-.589c.01013-.04045.0221-.08587.03708-.1422C44.48193,33.85765,44.44208,33.685,44.42941,33.66856Zm.02259-.44985a.72128.72128,0,0,1,.04663-.17606C44.52576,33.28573,44.50568,33.19136,44.452,33.21871Zm.71157-.26262a.43373.43373,0,0,0-.02539.03968c.01484-.06579.03131-.13579.05066-.2142C45.17325,32.87019,45.16586,32.92406,45.16357,32.95609Zm10.24308-9.58165c.12387-.50175-.01285-1.23906.632-1.26964C55.78333,22.36484,55.536,23.36821,55.40665,23.37444ZM57.51111,12.937c.03769-.108.0748-.21694.11-.32608C57.56943,12.83452,57.52658,12.97611,57.51111,12.937Zm1.50128-1.948a.19506.19506,0,0,0-.00531.05331c-.01508-.01426-.03076-.02932-.047-.04618.02228-.02157.0445-.04239.06815-.063C59.02219,10.9517,59.01663,10.97029,59.01239,10.989Zm.07867.13108c-.00531-.00363-.01544-.01263-.02835-.02424a.64787.64787,0,0,0,.20374-.11056.48922.48922,0,0,0-.06485.19959C59.16568,11.165,59.12778,11.14327,59.09106,11.12006Zm.15787.09036-.00088-.00006.00045-.00247a.222.222,0,0,1,.02076-.177.16447.16447,0,0,0,.00711-.05405c.03741-.02545.07464-.05339.115-.082-.0448.091-.09259.1811-.13559.27224A.10839.10839,0,0,0,59.24893,11.21042Zm.14047-.01908-.04864.06686c-.02158-.01067-.04453-.023-.06583-.03439.03119-.06721.02332-.14873.09745-.20387a.19805.19805,0,0,1,.01068.02965A.38016.38016,0,0,1,59.3894,11.19134Zm.03174-.39267c-.17752.16522-.31888.28094-.2879.15085.01123-.04876.02222-.09751.03439-.14631.14936-.13488.26166-.21466.23081-.0838-.00534.02025-.01261.04124-.01892.06392l.04535-.001Zm.14411-.02963a.4303.4303,0,0,1,.19357-.09132c-.00885.01258-.01764.0244-.02484.03623l-.00064-.00082-.00354.00554c-.04486.06376-.0904.12669-.1341.18888A.61609.61609,0,0,0,59.56525,10.769Zm.13076.40576-.02365.00162c-.00152-.01494-.00421-.0292-.00555-.04414.01889-.021.03848-.04193.05838-.06454C59.71564,11.10339,59.70508,11.13908,59.696,11.1748Zm.06223-.23111c-.03311.0398-.06314.0773-.09137.11341l.00027-.00162a.51606.51606,0,0,1,.06769-.13077l.01776-.03847A.29509.29509,0,0,1,59.779,10.86C59.77252,10.88763,59.76556,10.91607,59.75824,10.94369Zm.312,1.855a.34768.34768,0,0,1-.04077-.21681c.01871-.11435.03622-.23044.05652-.34467.02246-.13557.05157-.26983.079-.40506.00732.13187.0188.32931.03821.54954A2.551,2.551,0,0,0,60.07028,12.7987Zm.19534.65808a2.11627,2.11627,0,0,1,.01322-.33208,3.98632,3.98632,0,0,0,.08844.50275.92964.92964,0,0,1-.07926.24727C60.28,13.72708,60.27252,13.58689,60.26562,13.45678Z" style="fill: #ff5000"/>
    </g>
  </g>
</svg>
